<svg id="Layer_1" data-name="Layer 1" xmlns="http://www.w3.org/2000/svg" viewBox="0 0 369.96 233.9"><defs><style>.cls-1{opacity:0.15;}.cls-2{fill:#2698b5;}.cls-3{fill:#0c3a78;}</style></defs><g class="cls-1"><path class="cls-2" d="M77.05,166.56V91.14a8.93,8.93,0,0,1,6.55-8.65L276.49,30.3A8.84,8.84,0,0,1,287.56,39v186a8.83,8.83,0,0,1-11.32,8.58L83.35,175.14A8.93,8.93,0,0,1,77.05,166.56Z"/></g><path class="cls-3" d="M13.47,142A13.48,13.48,0,0,1,0,128.48V65.74a13.47,13.47,0,0,1,26.94,0v62.74A13.48,13.48,0,0,1,13.47,142Zm0-81.28A5.08,5.08,0,0,0,8.4,65.74v62.74a5.07,5.07,0,0,0,10.14,0V65.74A5.08,5.08,0,0,0,13.47,60.67Z"/><path class="cls-3" d="M247.93,200.09a13.4,13.4,0,0,1-3.65-.51L51.39,144.7A12.74,12.74,0,0,1,42,132.6V61.69a12.72,12.72,0,0,1,9.71-12.21L244.64.42a13.24,13.24,0,0,1,11.45,2.36A12.45,12.45,0,0,1,261,12.63V187.48a12.4,12.4,0,0,1-5,10A13.33,13.33,0,0,1,247.93,200.09ZM248,8.41a4.82,4.82,0,0,0-1.25.16L53.82,57.63a4.31,4.31,0,0,0-3.37,4.06V132.6a4.25,4.25,0,0,0,3.24,4L246.58,191.5a4.85,4.85,0,0,0,4.3-.78,4,4,0,0,0,1.68-3.24V12.63a4,4,0,0,0-1.63-3.21A4.76,4.76,0,0,0,248,8.41Z"/><rect class="cls-3" x="308.92" y="95.85" width="61.05" height="8.4"/><rect class="cls-3" x="281.26" y="44.45" width="61.04" height="8.4" transform="translate(56.92 234.71) rotate(-45)"/><rect class="cls-3" x="307.58" y="120.94" width="8.4" height="61.04" transform="translate(-15.78 264.82) rotate(-45)"/></svg>