<svg id="Layer_1" data-name="Layer 1" xmlns="http://www.w3.org/2000/svg" viewBox="0 0 194.34 378.24"><defs><style>.cls-1{opacity:0.15;}.cls-2{fill:#2698b5;}.cls-3{fill:#0c3a78;}</style></defs><g class="cls-1"><circle class="cls-2" cx="111.91" cy="295.81" r="82.42"/></g><path class="cls-3" d="M85.2,361A85.19,85.19,0,0,1,43.13,201.72V143a13.32,13.32,0,0,1,13.31-13.31H114A13.32,13.32,0,0,1,127.26,143v58.87A85.11,85.11,0,0,1,85.2,361ZM56.44,137.36A5.63,5.63,0,0,0,50.81,143l.08,60.5.3,2.6-2.31,1.23a77.66,77.66,0,1,0,72.87.27l-2.32-1.23.27-2.28a8.32,8.32,0,0,1-.11-1.19V143a5.64,5.64,0,0,0-5.64-5.63Z"/><path class="cls-3" d="M116.62,123.1H53.77a11.1,11.1,0,0,1,0-22.19h62.85a11.1,11.1,0,0,1,0,22.19ZM53.77,108.59a3.42,3.42,0,0,0,0,6.83h62.85a3.42,3.42,0,1,0,0-6.83Z"/><path class="cls-3" d="M4.55,303C2,286.74,11.44,268.46,38.17,264.3l79.77-12.39c9.65-1.5,17.14-5.6,21.09-11.55,3.38-5.09,4.14-11.47,2.28-18.94l7.44-1.86c2.38,9.52,1.23,18.18-3.32,25-5.16,7.77-14.5,13.06-26.31,14.9L39.35,271.89c-23,3.57-29,18.36-27.21,29.95Z"/><rect class="cls-3" x="138.75" y="268.95" width="27.89" height="7.68"/><rect class="cls-3" x="138.75" y="311.72" width="16.51" height="7.68"/><rect class="cls-3" x="122.3" y="290.34" width="43.7" height="7.68"/><path class="cls-3" d="M80,89.89a18,18,0,1,1,18-18A18,18,0,0,1,80,89.89Zm0-28.32A10.33,10.33,0,1,0,90.28,71.89,10.33,10.33,0,0,0,80,61.57Z"/><path class="cls-3" d="M108.53,53.67a14.54,14.54,0,1,1,14.54-14.53A14.55,14.55,0,0,1,108.53,53.67Zm0-21.39a6.86,6.86,0,1,0,6.86,6.86A6.86,6.86,0,0,0,108.53,32.28Z"/><path class="cls-3" d="M79.23,24.38A12.19,12.19,0,1,1,91.42,12.19,12.21,12.21,0,0,1,79.23,24.38Zm0-16.7a4.51,4.51,0,1,0,4.51,4.51A4.51,4.51,0,0,0,79.23,7.68Z"/></svg>