<svg id="Layer_1" data-name="Layer 1" xmlns="http://www.w3.org/2000/svg" viewBox="0 0 330.98 394.66"><defs><style>.cls-1{opacity:0.15;}.cls-2{fill:#2698b5;}.cls-3{fill:#0c3a78;}</style></defs><g class="cls-1"><path class="cls-2" d="M329.18,144.14l-140-80.84a3.57,3.57,0,0,0-3.6,0l-140,80.84a3.6,3.6,0,0,0-1.8,3.11V308.94a3.6,3.6,0,0,0,1.8,3.11l140,80.84a3.57,3.57,0,0,0,3.6,0l140-80.84a3.6,3.6,0,0,0,1.8-3.11V147.25A3.6,3.6,0,0,0,329.18,144.14Z"/></g><path class="cls-3" d="M152.23,365a15.23,15.23,0,0,1-7.63-2L11.75,286.28a15.3,15.3,0,0,1-7.63-13.22V119.66a15.29,15.29,0,0,1,7.63-13.21L144.6,29.75a15.29,15.29,0,0,1,15.26,0l132.84,76.7a15.27,15.27,0,0,1,7.63,13.21v153.4a15.31,15.31,0,0,1-7.62,13.22L159.86,363A15.26,15.26,0,0,1,152.23,365Zm0-328.34a6.26,6.26,0,0,0-3.14.84L16.24,114.22a6.29,6.29,0,0,0-3.14,5.44v153.4a6.31,6.31,0,0,0,3.14,5.45l132.85,76.7a6.29,6.29,0,0,0,6.28,0l132.85-76.7a6.31,6.31,0,0,0,3.14-5.45V119.66a6.29,6.29,0,0,0-3.14-5.44h0L155.37,37.52A6.29,6.29,0,0,0,152.23,36.68Z"/><path class="cls-3" d="M7.75,328.83,0,324.3C23.32,284.44,65.77,279.15,106.83,274,147.52,269,186,264.18,207,228.15s6-72-9.88-110.08C181.08,79.63,164.47,39.88,187.8,0l7.75,4.53c-21.07,36-6,72,9.88,110.08,16.07,38.44,32.68,78.19,9.35,118.07S149,277.83,107.94,282.94C67.26,288,28.83,292.8,7.75,328.83Z"/><path class="cls-3" d="M121,394.66l-7.75-4.53c21.09-36.05,6.79-71.57-8.36-109.17-15.29-38-31.1-77.21-7.78-117s65.39-46.33,106.12-52.66C243.68,105,281.88,99,303,62.92l7.75,4.54c-23.28,39.78-65.4,46.33-106.13,52.66-40.44,6.28-78.63,12.22-99.76,48.32S98.08,240,113.22,277.61C128.51,315.56,144.32,354.81,121,394.66Z"/><rect class="cls-3" x="221.68" y="20.87" width="8.97" height="104.86" transform="translate(49.44 232.33) rotate(-59.94)"/><rect class="cls-3" x="76.45" y="265.8" width="8.97" height="110.4" transform="translate(-237.55 230.67) rotate(-60.01)"/><rect class="cls-3" x="150.06" y="134.89" width="8.98" height="125.52" transform="translate(-93.81 233.26) rotate(-60.14)"/><rect class="cls-3" x="131.01" y="182.15" width="8.98" height="105.23" transform="translate(-135.56 235.37) rotate(-60.14)"/><rect class="cls-3" x="171.12" y="109.91" width="8.98" height="103.57" transform="translate(-52.06 233.47) rotate(-60.14)"/><rect class="cls-3" x="239.03" y="-18.38" width="8.98" height="125.52" transform="translate(83.78 233.46) rotate(-60.14)"/><rect class="cls-3" x="61.46" y="288.3" width="8.98" height="125.52" transform="translate(-271.34 233.44) rotate(-60.14)"/></svg>