<svg id="Layer_1" data-name="Layer 1" xmlns="http://www.w3.org/2000/svg" viewBox="0 0 398.17 365.77"><defs><style>.cls-1{opacity:0.15;}.cls-2{fill:#2698b5;}.cls-3{fill:#0c3a78;}</style></defs><g class="cls-1"><circle class="cls-2" cx="238.32" cy="205.92" r="159.85"/></g><path class="cls-3" d="M177.53,355.06C79.64,355.06,0,275.42,0,177.53S79.64,0,177.53,0,355.06,79.64,355.06,177.53,275.42,355.06,177.53,355.06Zm0-346.16C84.54,8.9,8.9,84.55,8.9,177.53S84.54,346.16,177.53,346.16s168.63-75.65,168.63-168.63S270.51,8.9,177.53,8.9Z"/><path class="cls-3" d="M171.55,318.23c-2.63,0-5.36-.05-8.15-.18-33.79-1.51-62-12.66-81.47-32.22C45,248.76,37.74,182.73,60.4,89.56l1-4.06,4.12.74c94.39,16.86,151.88,50.14,170.88,98.91,10,25.74,8.85,56-3.4,87.54a179.07,179.07,0,0,1-21.64,40.12l-1,1.26-1.55.37A174.92,174.92,0,0,1,171.55,318.23ZM68.06,95.75C47.38,183.5,54.14,245.31,88.2,279.51c22.56,22.65,53.42,28.62,75.33,29.64a178.33,178.33,0,0,0,41.67-3,177.81,177.81,0,0,0,19.58-36.89c7.92-20.47,14.91-51.11,3.29-80.9C210.52,143.37,156.7,112.23,68.06,95.75Z"/><path class="cls-3" d="M183.86,318.23a175.83,175.83,0,0,1-38.59-4.06l-1.54-.39-.95-1.26a179.11,179.11,0,0,1-21.36-40.28c-12-31.61-13-61.89-2.76-87.56C138,136.05,195.75,103.19,290.25,87l4.12-.7,1,4.07c22,93.32,14.26,159.3-22.95,196.1-19.65,19.42-47.9,30.37-81.7,31.64Q187.19,318.23,183.86,318.23ZM149,305.87a179,179,0,0,0,41.63,3.34c21.93-.86,52.83-6.61,75.56-29.1,34.3-34,41.51-95.72,21.46-183.61C198.84,112.34,144.79,143.11,126.93,188,106,240.58,142.57,296.69,149,305.87Z"/><path class="cls-3" d="M178.62,110.77l-1.71-.7c-5.56-2.28-10.74-4.35-15.63-6.3-8.79-3.52-16.39-6.56-23.66-9.75L133,92l2.62-4.34c8.76-14.5,24.34-32.65,40.66-47.37l3.1-2.8,3,2.93c16.12,15.8,30,33.33,38.08,48.1l2.48,4.55L218,94.83c-12.61,4.57-37.45,15.11-37.7,15.21ZM146,87.92c5.74,2.43,11.82,4.86,18.63,7.58,4.4,1.76,9,3.62,14,5.63C183.66,99,198.87,92.6,210,88.32c-7.29-12-18.44-25.93-30.93-38.58C164.17,63.68,152.75,77.77,146,87.92Z"/></svg>