<svg id="Layer_1" data-name="Layer 1" xmlns="http://www.w3.org/2000/svg" viewBox="0 0 399.68 374.81"><defs><style>.cls-1{opacity:0.15;}.cls-2{fill:#2698b5;}.cls-3{fill:#0c3a78;}</style></defs><g class="cls-1"><path class="cls-2" d="M399.68,116.68V330.32a6.87,6.87,0,0,1-6.68,7L228.34,374a35.8,35.8,0,0,1-15.52,0L48.51,337.36a6.87,6.87,0,0,1-6.68-7V115.47h0a7.08,7.08,0,0,1,3.63-6.16l166.67-64.5a23.85,23.85,0,0,1,17.24,0l166.64,65a7,7,0,0,1,3.6,5.78Z"/></g><path class="cls-3" d="M185.77,260.44a4.29,4.29,0,0,1-2.14-.57c-.52-.29-52.21-29.19-103.71-21.33a4.35,4.35,0,0,1-5-4.29V83.14A4.35,4.35,0,0,1,78.11,79c2.24-.61,55.51-14.65,110.3,27.13a4.36,4.36,0,0,1,1.71,3.45V256.09a4.35,4.35,0,0,1-2.16,3.76A4.39,4.39,0,0,1,185.77,260.44Zm-87.11-32c36.51,0,69.25,13.87,82.77,20.48V111.7c-26.17-19.37-51.88-25-69-26.37a113.18,113.18,0,0,0-28.83,1.31V229.29A136.85,136.85,0,0,1,98.66,228.47Z"/><path class="cls-3" d="M186.23,260.44a4.35,4.35,0,0,1-4.34-4.35V109.53a4.35,4.35,0,0,1,1.7-3.45C238.38,64.3,291.65,78.34,293.89,79a4.35,4.35,0,0,1,3.19,4.19V234.25a4.35,4.35,0,0,1-5,4.29c-51.53-7.85-103.19,21-103.7,21.33A4.35,4.35,0,0,1,186.23,260.44Zm4.34-148.74V249c15.36-7.5,55.54-24.38,97.82-19.66V86.65C276.58,84.48,233.87,79.65,190.57,111.7Z"/><path class="cls-3" d="M309.17,260.44H62.83a4.35,4.35,0,0,1-4.35-4.35V99.51a4.34,4.34,0,0,1,4.35-4.34H73.94a4.34,4.34,0,1,1,0,8.68H67.17v147.9H304.83V102h-6.77a4.34,4.34,0,1,1,0-8.68h11.11a4.34,4.34,0,0,1,4.35,4.34V256.09A4.35,4.35,0,0,1,309.17,260.44Z"/><path class="cls-3" d="M208,282H164.53a4.34,4.34,0,0,1-4.31-4.91l.51-3.91H46.5a4.34,4.34,0,0,1-4.34-4.34V112.25a4.34,4.34,0,0,1,4.34-4.34H59.09a4.35,4.35,0,0,1,0,8.69H50.84V264.49H165.52a4.35,4.35,0,0,1,4.34,4.35v1.21a3.6,3.6,0,0,1,0,.56l-.35,2.7h33.36l-.65-3.72a4.35,4.35,0,0,1,4.28-5.1h114.7V114.79h-8.24a4.35,4.35,0,1,1,0-8.69H325.5a4.35,4.35,0,0,1,4.35,4.34v158.4a4.34,4.34,0,0,1-4.35,4.34H211.63l.66,3.72A4.34,4.34,0,0,1,208,282Z"/><path class="cls-3" d="M262.87,134.07a5.05,5.05,0,0,1-3.3-1.22l-6.6-6.41-6.33,6.35a4.32,4.32,0,0,1-3.07,1.28H243a4.34,4.34,0,0,1-4.34-4.37l.26-45.1a4.34,4.34,0,0,1,4.34-4.32h0a4.34,4.34,0,0,1,4.32,4.37l-.21,35.12,2.49-2.5a4.35,4.35,0,0,1,6.1,0l2.59,2.51V81.23a4.35,4.35,0,1,1,8.69,0v48.5A4.34,4.34,0,0,1,262.87,134.07Z"/><path class="cls-3" d="M185.83,345.34a40.9,40.9,0,0,1-8.83-1L10.59,307.31A11.34,11.34,0,0,1,0,295.83V77.71A11.56,11.56,0,0,1,6,67.63l.5-.23L175.67,1.93a28.44,28.44,0,0,1,20.66,0l169.18,66a4.52,4.52,0,0,1,.5.23,11.46,11.46,0,0,1,5.91,9.41l.08,1.09V295.83a11.34,11.34,0,0,1-10.59,11.48L194.65,344.38A40.81,40.81,0,0,1,185.83,345.34ZM9.92,75.38a2.92,2.92,0,0,0-1.23,2.39V295.83a2.64,2.64,0,0,0,2.44,2.81,4.29,4.29,0,0,1,.94.1L178.89,335.9a32.12,32.12,0,0,0,13.87,0l167.18-37.16a4.17,4.17,0,0,1,.94-.1,2.65,2.65,0,0,0,2.44-2.81V79.08l-.07-1A2.88,2.88,0,0,0,362,75.9L193.17,10.05a19.87,19.87,0,0,0-14.36,0Z"/></svg>