<svg id="Layer_1" data-name="Layer 1" xmlns="http://www.w3.org/2000/svg" viewBox="0 0 279.61 377.88"><defs><style>.cls-1{opacity:0.15;}.cls-2{fill:#2698b5;}.cls-3{fill:#0c3a78;}</style></defs><g class="cls-1"><rect class="cls-2" x="61.17" y="43.43" width="218.45" height="334.45" rx="4.32"/></g><path class="cls-3" d="M252.88,317.75H26.08V8.48A8.46,8.46,0,0,1,34.53,0H247.22a5.67,5.67,0,0,1,5.66,5.66ZM34.27,309.57H244.7V8.21H34.53a.27.27,0,0,0-.26.27Z"/><path class="cls-3" d="M8.35,333.76H.17V35.39C.17,19,13.39,0,30.45,0h4.09V313H26.36V8.74c-10.28,2.81-18,15.74-18,26.65Z"/><path class="cls-3" d="M246,353.48H21.51A21.53,21.53,0,0,1,0,332v-.62a21.53,21.53,0,0,1,21.51-21.5H246ZM21.51,318A13.34,13.34,0,0,0,8.18,331.36V332A13.34,13.34,0,0,0,21.51,345.3H237.84V318Z"/><rect class="cls-3" x="241.76" y="345.21" width="11.06" height="8.18"/><path class="cls-3" d="M218,131.53H61a10.37,10.37,0,0,1-10.36-10.36V66.84A10.38,10.38,0,0,1,61,56.47H218a10.37,10.37,0,0,1,10.36,10.37v54.33A10.37,10.37,0,0,1,218,131.53ZM61,64.65a2.21,2.21,0,0,0-2.18,2.19v54.33A2.21,2.21,0,0,0,61,123.35H218a2.21,2.21,0,0,0,2.18-2.18V66.84A2.21,2.21,0,0,0,218,64.65Z"/></svg>