<svg id="Layer_1" data-name="Layer 1" xmlns="http://www.w3.org/2000/svg" viewBox="0 0 397.88 367.18"><defs><style>.cls-1{opacity:0.15;}.cls-2{fill:#2698b5;}.cls-3{fill:#0c3a78;}</style></defs><g class="cls-1"><circle class="cls-2" cx="238.47" cy="207.77" r="159.41"/></g><path class="cls-3" d="M177,354.08c-97.62,0-177-79.42-177-177S79.42,0,177,0s177,79.42,177,177S274.66,354.08,177,354.08ZM177,8.87C84.31,8.87,8.87,84.31,8.87,177S84.31,345.2,177,345.2,345.2,269.77,345.2,177,269.77,8.87,177,8.87Z"/><path class="cls-3" d="M63.8,303.91H54.92V49.38L76.81,32.09S94.24,19,99.41,21.42L102,22.6l.09,3V223.37H93.21V32.26C89,34.7,83.5,38.13,82.38,39L63.8,53.67Z"/><path class="cls-3" d="M100.78,328.09H91.91V273.54c0-13.33,8.43-28.9,32.2-28.9h89.46c20.27,0,35-11.28,37.61-28L235,219.57,226,213.63A14.49,14.49,0,0,1,213.57,221H170.44c-14.28,0-25.54-.59-34.59-1.07-23.51-1.25-29.28-1.19-35.19,8.2l-7.51-4.72c8.91-14.17,19.65-13.6,43.17-12.35,9,.48,20.08,1.07,34.12,1.07h43.13a5.61,5.61,0,0,0,5.47-5.48v-8.26L236.9,210.2l23.56-4.29v5.32c0,24.5-19.72,42.28-46.89,42.28H124.11c-21.64,0-23.33,15.33-23.33,20Z"/><path class="cls-3" d="M234.59,219.4l-1.28-.94C232,217.5,201.25,194.55,204,162c2.16-25.46,24.14-48.81,65.35-69.43l3.73-1.87,2.09,3.61c23.12,39.86,28.67,71.45,16.49,93.91-15.56,28.72-53.87,31-55.5,31.1Zm35-117c-35.81,18.6-54.89,38.87-56.73,60.28-2.08,24.15,19,43.14,24.45,47.61,7-.75,35.06-5,46.58-26.36C294.1,165,289.29,137.63,269.58,102.42Z"/></svg>