<svg id="Layer_1" data-name="Layer 1" xmlns="http://www.w3.org/2000/svg" viewBox="0 0 355.08 381.49"><defs><style>.cls-1{opacity:0.15;}.cls-2{fill:#2698b5;}.cls-3{fill:#0c3a78;}</style></defs><g class="cls-1"><rect class="cls-2" x="34.53" y="74.14" width="320.55" height="307.35" rx="4.32"/></g><rect class="cls-3" x="81.66" y="36.29" width="163.16" height="7.83"/><path class="cls-3" d="M313.18,351.48H15.2A15.22,15.22,0,0,1,0,336.28V51.49a15.22,15.22,0,0,1,15.2-15.2H69.32v7.84H15.2a7.37,7.37,0,0,0-7.37,7.36V336.28a7.38,7.38,0,0,0,7.37,7.37h298a7.38,7.38,0,0,0,7.37-7.37V51.49a7.37,7.37,0,0,0-7.37-7.36H260V36.29h53.18a15.22,15.22,0,0,1,15.2,15.2V336.28A15.22,15.22,0,0,1,313.18,351.48Z"/><path class="cls-3" d="M77,82.55a9.73,9.73,0,0,1-9.73-9.73V9.73a9.74,9.74,0,0,1,19.47,0V72.82A9.74,9.74,0,0,1,77,82.55ZM77,7.83a1.93,1.93,0,0,0-1.9,1.9V72.82a1.9,1.9,0,0,0,3.8,0V9.73A1.93,1.93,0,0,0,77,7.83Z"/><path class="cls-3" d="M251.42,82.55a9.74,9.74,0,0,1-9.74-9.73V9.73a9.74,9.74,0,0,1,19.48,0V72.82A9.74,9.74,0,0,1,251.42,82.55Zm0-74.72a1.93,1.93,0,0,0-1.9,1.9V72.82a1.9,1.9,0,0,0,3.8,0V9.73A1.93,1.93,0,0,0,251.42,7.83Z"/><rect class="cls-3" x="2.92" y="116.79" width="322.67" height="7.83"/><path class="cls-3" d="M74.12,221.79H44.34a9.21,9.21,0,0,1-9.2-9.2V182.81a9.21,9.21,0,0,1,9.2-9.2H74.12a9.21,9.21,0,0,1,9.2,9.2v29.78A9.21,9.21,0,0,1,74.12,221.79ZM44.34,181.44A1.39,1.39,0,0,0,43,182.81v29.78A1.38,1.38,0,0,0,44.34,214H74.12a1.37,1.37,0,0,0,1.36-1.36V182.81a1.38,1.38,0,0,0-1.36-1.37Z"/><path class="cls-3" d="M145.3,221.79H115.52a9.21,9.21,0,0,1-9.2-9.2V182.81a9.21,9.21,0,0,1,9.2-9.2H145.3a9.2,9.2,0,0,1,9.2,9.2v29.78A9.21,9.21,0,0,1,145.3,221.79Zm-29.78-40.35a1.39,1.39,0,0,0-1.37,1.37v29.78a1.38,1.38,0,0,0,1.37,1.36H145.3a1.38,1.38,0,0,0,1.37-1.36V182.81a1.39,1.39,0,0,0-1.37-1.37Z"/><path class="cls-3" d="M216.49,221.79H186.71a9.22,9.22,0,0,1-9.21-9.2V182.81a9.21,9.21,0,0,1,9.21-9.2h29.78a9.21,9.21,0,0,1,9.2,9.2v29.78A9.21,9.21,0,0,1,216.49,221.79Zm-29.78-40.35a1.38,1.38,0,0,0-1.37,1.37v29.78a1.38,1.38,0,0,0,1.37,1.36h29.78a1.37,1.37,0,0,0,1.36-1.36V182.81a1.38,1.38,0,0,0-1.36-1.37Z"/><path class="cls-3" d="M287.67,221.79H257.89a9.21,9.21,0,0,1-9.2-9.2V182.81a9.21,9.21,0,0,1,9.2-9.2h29.78a9.21,9.21,0,0,1,9.2,9.2v29.78A9.21,9.21,0,0,1,287.67,221.79Zm-29.78-40.35a1.39,1.39,0,0,0-1.37,1.37v29.78a1.38,1.38,0,0,0,1.37,1.36h29.78a1.38,1.38,0,0,0,1.37-1.36V182.81a1.39,1.39,0,0,0-1.37-1.37Z"/><path class="cls-3" d="M74.12,296.25H44.34a9.21,9.21,0,0,1-9.2-9.2V257.27a9.21,9.21,0,0,1,9.2-9.2H74.12a9.21,9.21,0,0,1,9.2,9.2v29.78A9.21,9.21,0,0,1,74.12,296.25ZM44.34,255.9A1.39,1.39,0,0,0,43,257.27v29.78a1.39,1.39,0,0,0,1.37,1.37H74.12a1.38,1.38,0,0,0,1.36-1.37V257.27a1.38,1.38,0,0,0-1.36-1.37Z"/><path class="cls-3" d="M145.3,296.25H115.52a9.21,9.21,0,0,1-9.2-9.2V257.27a9.21,9.21,0,0,1,9.2-9.2H145.3a9.2,9.2,0,0,1,9.2,9.2v29.78A9.21,9.21,0,0,1,145.3,296.25ZM115.52,255.9a1.39,1.39,0,0,0-1.37,1.37v29.78a1.39,1.39,0,0,0,1.37,1.37H145.3a1.39,1.39,0,0,0,1.37-1.37V257.27a1.39,1.39,0,0,0-1.37-1.37Z"/></svg>