<svg id="Layer_1" data-name="Layer 1" xmlns="http://www.w3.org/2000/svg" viewBox="0 0 403.56 309.79"><defs><style>.cls-1{opacity:0.15;}.cls-2{fill:#2698b5;}.cls-3{fill:#0c3a78;}</style></defs><g class="cls-1"><circle class="cls-2" cx="291.17" cy="197.4" r="112.39"/></g><polygon class="cls-3" points="0 241.64 33.74 180.65 41.18 184.76 17.08 228.34 67.34 215.1 69.5 223.33 0 241.64"/><path class="cls-3" d="M143.12,251c-30.6,0-60.26-10.52-82.18-29.7l5.61-6.4c24.91,21.8,60.68,31.56,95.73,26.11l1.3,8.41A133.11,133.11,0,0,1,143.12,251Z"/><path class="cls-3" d="M33.78,189.22C20,165.51,15.27,135.48,20.42,104.64a126,126,0,0,1,98.24-102C162.2-6.37,205,8,239.09,42.93l-6.1,6C201,16.05,161,2.58,120.38,11a117.47,117.47,0,0,0-91.57,95.1C24,134.93,28.37,163,41.14,185Z"/><path class="cls-3" d="M256.29,289.44A125.43,125.43,0,1,1,381.71,164c0,25.19-5.78,46-18.19,65.38l-7.17-4.58c11.5-18,16.85-37.3,16.85-60.8A116.92,116.92,0,1,0,256.29,280.93c32.79,0,56-7.85,75.37-25.43l5.72,6.3C316.37,280.91,291.35,289.44,256.29,289.44Z"/><polygon class="cls-3" points="396.23 280.48 329.26 264.24 331.27 255.97 379.96 267.78 357.1 224.15 364.64 220.19 396.23 280.48"/><path class="cls-3" d="M258.39,186.93a21.78,21.78,0,1,1,21.78-21.78A21.8,21.8,0,0,1,258.39,186.93Zm0-35.05a13.27,13.27,0,1,0,13.27,13.27A13.29,13.29,0,0,0,258.39,151.88Z"/><path class="cls-3" d="M194.23,186.93A21.78,21.78,0,1,1,216,165.15,21.8,21.8,0,0,1,194.23,186.93Zm0-35.05a13.27,13.27,0,1,0,13.27,13.27A13.29,13.29,0,0,0,194.23,151.88Z"/><path class="cls-3" d="M322.55,186.93a21.78,21.78,0,1,1,21.78-21.78A21.8,21.8,0,0,1,322.55,186.93Zm0-35.05a13.27,13.27,0,1,0,13.27,13.27A13.28,13.28,0,0,0,322.55,151.88Z"/></svg>