<svg id="Layer_1" data-name="Layer 1" xmlns="http://www.w3.org/2000/svg" viewBox="0 0 383.59 384.61"><defs><style>.cls-1{opacity:0.15;}.cls-2{fill:#2698b5;}.cls-3{fill:#0c3a78;}</style></defs><g class="cls-1"><circle class="cls-2" cx="227.59" cy="228.6" r="156.01"/></g><path class="cls-3" d="M173.61,350.51C77.88,350.51,0,272.63,0,176.9S77.88,3.28,173.61,3.28A173.91,173.91,0,0,1,302.87,61l-7,6.28A164.47,164.47,0,0,0,173.61,12.67C83.06,12.67,9.39,86.34,9.39,176.9S83.06,341.12,173.61,341.12,337.84,267.45,337.84,176.9a170.53,170.53,0,0,0-17.67-75.2l8.39-4.22a180,180,0,0,1,18.67,79.42C347.23,272.63,269.35,350.51,173.61,350.51Z"/><path class="cls-3" d="M174.24,252.57,115.7,193.78a45,45,0,0,1,.08-63.52l3.32-3.32,55.33,55.33L356.7,0l6.87,6.88a39.82,39.82,0,0,1,0,56.34ZM119.31,140.44a35.65,35.65,0,0,0,3,46.71l51.89,52.12L356.94,56.59a30.44,30.44,0,0,0,0-43.07l-.23-.24L174.43,195.55Z"/><polygon class="cls-3" points="174.23 297.17 126.52 249.19 133.18 242.57 174.25 283.87 214.91 243.21 221.55 249.85 174.23 297.17"/></svg>