<svg id="Layer_1" data-name="Layer 1" xmlns="http://www.w3.org/2000/svg" viewBox="0 0 395.27 392.67"><defs><style>.cls-1{opacity:0.15;}.cls-2{fill:#2698b5;}.cls-3{fill:#0c3a78;}</style></defs><g class="cls-1"><circle class="cls-2" cx="242.92" cy="240.33" r="152.35"/></g><path class="cls-3" d="M185.35,380.84c-93.29,0-169.19-75.9-169.19-169.19s75.9-169.2,169.19-169.2,169.2,75.9,169.2,169.2S278.65,380.84,185.35,380.84Zm0-329.91C96.74,50.93,24.64,123,24.64,211.65s72.1,160.71,160.71,160.71,160.72-72.1,160.72-160.71S274,50.93,185.35,50.93Z"/><path class="cls-3" d="M15.62,106a14.78,14.78,0,0,1-2.09-.14A15.59,15.59,0,0,1,6.1,78L103.81,3.2a15.59,15.59,0,1,1,19,24.76h0l-97.7,74.81A15.44,15.44,0,0,1,15.62,106Zm97.66-97.5A7,7,0,0,0,109,9.94L11.26,84.75A7.11,7.11,0,0,0,19.9,96l97.71-74.81a7.11,7.11,0,0,0-4.33-12.76Z"/><path class="cls-3" d="M355.11,106a15.51,15.51,0,0,1-9.46-3.21L247.94,28a15.59,15.59,0,0,1,19-24.76L364.61,78a15.59,15.59,0,0,1-9.5,28Zm-102-84.76L350.81,96a7.1,7.1,0,0,0,8.64-11.28L261.74,9.94a7.11,7.11,0,1,0-8.64,11.29Z"/><rect class="cls-3" x="63.25" y="363.37" width="40.3" height="8.48" transform="translate(-235.51 166.64) rotate(-45)"/><rect class="cls-3" x="283.07" y="347.46" width="8.48" height="40.3" transform="translate(-175.79 310.83) rotate(-45)"/><rect class="cls-3" x="174.53" y="114.6" width="8.48" height="117.07"/><rect class="cls-3" x="174.36" y="223.22" width="108.98" height="8.48"/></svg>