<svg id="Layer_1" data-name="Layer 1" xmlns="http://www.w3.org/2000/svg" viewBox="0 0 396.61 267.78"><defs><style>.cls-1{opacity:0.15;}.cls-2{fill:#2698b5;}.cls-3{fill:#0c3a78;}</style></defs><g class="cls-1"><path class="cls-2" d="M72.32,36.42h320a4.32,4.32,0,0,1,4.32,4.32v207.8a0,0,0,0,1,0,0H68a0,0,0,0,1,0,0V40.74A4.32,4.32,0,0,1,72.32,36.42Z"/></g><circle class="cls-3" cx="197.18" cy="26.52" r="6.87"/><path class="cls-3" d="M366.24,221.62H28.13V18.43A18.45,18.45,0,0,1,46.56,0H347.81a18.45,18.45,0,0,1,18.43,18.43Zm-328.61-9.5H356.74V18.43a9,9,0,0,0-8.93-8.93H46.56a8.94,8.94,0,0,0-8.93,8.93Z"/><path class="cls-3" d="M370.6,267.78H23.76A23.79,23.79,0,0,1,0,244V227.77H394.36V244A23.79,23.79,0,0,1,370.6,267.78ZM9.5,237.28V244a14.27,14.27,0,0,0,14.26,14.26H370.6A14.27,14.27,0,0,0,384.86,244v-6.74Z"/><rect class="cls-3" x="173.64" y="236.41" width="47.08" height="9.5"/></svg>