<svg id="Layer_1" data-name="Layer 1" xmlns="http://www.w3.org/2000/svg" viewBox="0 0 391.77 415.61"><defs><style>.cls-1{opacity:0.15;}.cls-2{fill:#2698b5;}.cls-3{fill:#0c3a78;}</style></defs><g class="cls-1"><circle class="cls-2" cx="234.49" cy="258.33" r="157.28"/></g><path class="cls-3" d="M174.67,403.48C78.36,403.48,0,325.12,0,228.8S78.36,54.13,174.67,54.13v8.76C83.18,62.89,8.76,137.31,8.76,228.8S83.18,394.72,174.67,394.72,340.59,320.29,340.59,228.8c0-77.75-53.32-145-126.78-160l1.74-8.58C293.08,76,349.34,146.9,349.34,228.8,349.34,325.12,271,403.48,174.67,403.48Z"/><path class="cls-3" d="M179.42,398.24h-8.76V165.17a31.6,31.6,0,0,0-3.77-14.48l-.51-1,0-75.83c-.52-14.13,8-28.36,21.8-36.32L253.35,0l2.18,3.79c5,8.72,5.79,19.16,2.12,29.4a46.48,46.48,0,0,1-20.79,24.29L208.48,73.85V190l-1.89,1.31c-9.44,6.52-15.1,16.73-14.76,26.63v.43l0,179.71h-8.75V218.6c0-.2,0-.41,0-.61-.33-12.09,6-24.35,16.65-32.54V68.79l32.76-18.9a37.76,37.76,0,0,0,16.93-19.65,26.87,26.87,0,0,0,.38-18.08l-57.21,33c-11.11,6.4-18,17.66-17.42,28.67l0,.29-.05.52V147.6a40.34,40.34,0,0,1,4.28,17.25l0,.25,0,.14ZM175.11,74.78h0Z"/><path class="cls-3" d="M224.59,392.15h-8.75V213.52l33.31-19.22a37.72,37.72,0,0,0,16.93-19.65,26.81,26.81,0,0,0,.38-18.08l-57.2,33c-.93.53-1.81,1.11-2.67,1.7l-5-7.2c1-.73,2.14-1.43,3.27-2.09L270,144.41l2.19,3.79c5,8.71,5.78,19.16,2.12,29.4a46.48,46.48,0,0,1-20.8,24.28l-28.94,16.7Z"/><path class="cls-3" d="M166.46,398.05H157.7v-86.7c0-11-6.44-22.11-16.9-29l-2.93-1.94V165.15L108.78,146a44,44,0,0,1-18.28-24.1c-2.89-9.9-1.59-19.74,3.66-27.71l3.48-5.28L158.53,129a48,48,0,0,1,16.1,17.6l-7.75,4.08a39.35,39.35,0,0,0-13.17-14.37l-53.46-35.23a24.62,24.62,0,0,0-1.34,18.33,35.17,35.17,0,0,0,14.69,19.25l33,21.77V275.7c12.19,8.5,19.73,21.89,19.82,35.3v87.05Z"/><path class="cls-3" d="M133.67,392.15h-8.76v-81L95.85,291.9c-18.72-12.39-25.23-35.64-14.52-51.83l3.49-5.28,59.85,39.59-4.84,7.3L87.41,247c-6.19,12-.59,28.42,13.28,37.6l33,21.83Z"/></svg>