<svg id="Layer_1" data-name="Layer 1" xmlns="http://www.w3.org/2000/svg" viewBox="0 0 356.87 360.15"><defs><style>.cls-1{opacity:0.15;}.cls-2{fill:#2698b5;}.cls-3{fill:#0c3a78;}</style></defs><g class="cls-1"><circle class="cls-2" cx="207.57" cy="212.7" r="147.44"/></g><path class="cls-3" d="M130.5,338.45a5.1,5.1,0,0,1-3.28-1.19A135.09,135.09,0,0,1,78.66,233.41C78.66,158.77,139.39,98,214,98A134.43,134.43,0,0,1,310,138a5.11,5.11,0,0,1-7.25,7.21,125.13,125.13,0,1,0-169,184.24,5.11,5.11,0,0,1-3.29,9Z"/><path class="cls-3" d="M110.78,159.05A6.3,6.3,0,0,1,110,159a5.11,5.11,0,0,1-4.32-5.8c10-68.72,45.55-106.69,73.58-126.44C209.71,5.33,237.49.28,238.66.07a5.17,5.17,0,0,1,4.25,1.19,5.12,5.12,0,0,1,1.74,4.05l-2.82,71.14A5.11,5.11,0,1,1,231.61,76l2.56-64.45c-23.24,6.19-102.59,35.05-118.34,143.09A5.11,5.11,0,0,1,110.78,159.05Z"/><path class="cls-3" d="M83.42,233.57a5.11,5.11,0,0,1-4.55-2.78C44.74,164.4,50,110.75,60.45,77.44,71.81,41.19,91.17,20.92,92,20.08a5.1,5.1,0,0,1,7.74.47l40.07,52.9a5.11,5.11,0,1,1-8.14,6.17L95.39,31.75C80.7,50,33.76,120.69,88,226.12A5.09,5.09,0,0,1,85.75,233,5,5,0,0,1,83.42,233.57Z"/><path class="cls-3" d="M131.24,339a5.14,5.14,0,0,1-2.16-.48C-.44,278,0,139.45,0,138.06a5.12,5.12,0,0,1,6.26-4.91L57.64,145a5.11,5.11,0,0,1-2.3,10L10.46,144.61c1.69,27.27,15.21,134.31,122.94,184.6a5.12,5.12,0,0,1-2.16,9.75Z"/><path class="cls-3" d="M308.12,144.9a5.12,5.12,0,0,1-4.14-8.11l39.51-54.68c-21.91-6.36-95.19-22.41-153.26,26.31a5.11,5.11,0,0,1-6.57-7.84c73.41-61.56,169-26.32,169.91-26a5.1,5.1,0,0,1,2.33,7.77l-43.63,60.39A5.13,5.13,0,0,1,308.12,144.9Z"/></svg>