<svg id="Layer_1" data-name="Layer 1" xmlns="http://www.w3.org/2000/svg" viewBox="0 0 409.46 237.43"><defs><style>.cls-1{opacity:0.15;}.cls-2{fill:#2698b5;}.cls-3{fill:#0c3a78;}</style></defs><g class="cls-1"><path class="cls-2" d="M31,87.52,178.74,16.4a5,5,0,0,1,4.27,0L329.07,84.46a5,5,0,0,1,.4,8.85l-33.56,19.45a5,5,0,0,0-2.49,4.32V174.9a5,5,0,0,1-2.65,4.41L182.45,236.85a5,5,0,0,1-4.57.05L60.26,178.1a5,5,0,0,1-2.76-4.47v-60a5,5,0,0,0-2.64-4.41l-24-12.83A5,5,0,0,1,31,87.52Z"/></g><path class="cls-3" d="M162.93,169.65a8.83,8.83,0,0,1-4.07-1L4.77,88.74A8.84,8.84,0,0,1,5.06,72.9L157.68.85a8.8,8.8,0,0,1,7.55,0L317.92,72.94a8.84,8.84,0,0,1,.36,15.8L167.05,168.63A8.82,8.82,0,0,1,162.93,169.65ZM161.41,8.93,8.88,81,162.93,160.7,314.1,80.84Z"/><path class="cls-3" d="M162.62,220.61a7.8,7.8,0,0,1-3.64-.89l-119.36-62c-4.55-2.36-4.28-6.8-4.14-9.18,0-.55.07-1.14.07-1.76L36,103l8.93.1-.44,43.75c0,.78,0,1.54-.09,2.26,0,.32,0,.7,0,1l118.26,61.44L278.39,150a24.58,24.58,0,0,0,.1-3.1l0-43.68h8.93l0,43.57c0,3.47,0,8.54-4.85,11.11L166.32,219.69A7.83,7.83,0,0,1,162.62,220.61Z"/><path class="cls-3" d="M327.65,144.49a37.06,37.06,0,0,1-22.86-7.86L217.31,68.5c-8.24-6.41-15.9-8.94-22.8-7.49-5.9,1.23-11.67,5.42-17.15,12.46L170.31,68c6.82-8.75,14.34-14,22.37-15.72,9.58-2,19.71,1.09,30.12,9.19l87.49,68.13a28.55,28.55,0,0,0,39.94-5l2.89-3.72,7.05,5.5-2.89,3.71a37.18,37.18,0,0,1-24.9,14.1A39.63,39.63,0,0,1,327.65,144.49Z"/><path class="cls-3" d="M164,97.93a16.38,16.38,0,1,1,16.38-16.38A16.4,16.4,0,0,1,164,97.93Zm0-23.81a7.44,7.44,0,1,0,7.44,7.43A7.43,7.43,0,0,0,164,74.12Z"/><path class="cls-3" d="M373.8,131a51.6,51.6,0,0,1-18-3.39l-1.47-.61-.75-1.4c-.46-.85-11.12-21.05-1.23-38C360,74.48,377.55,67.53,404.42,67l4.2-.09L409,71.1C411.16,97.89,406,116,393.73,125A33.3,33.3,0,0,1,373.8,131Zm-13.05-11.11c4.5,1.47,18,5,27.75-2.17,8.87-6.49,12.93-20.85,11.84-41.66-20.84,1-34.72,6.55-40.26,16C354,102.58,358.82,115.59,360.75,119.91Z"/></svg>