<svg id="Layer_1" data-name="Layer 1" xmlns="http://www.w3.org/2000/svg" viewBox="0 0 356.2 340"><defs><style>.cls-1{opacity:0.15;}.cls-2{fill:#2698b5;}.cls-3{fill:#0c3a78;}</style></defs><g class="cls-1"><rect class="cls-2" x="27.95" y="167.25" width="61.28" height="172.76" rx="3.6"/><rect class="cls-2" x="116.36" y="122.16" width="63.15" height="215.95" rx="3.6"/><rect class="cls-2" x="206.63" y="80.51" width="61.28" height="259.14" rx="3.6"/><rect class="cls-2" x="295.03" y="35.58" width="61.17" height="302.33" rx="3.6"/></g><path class="cls-3" d="M55,313.42H15.3A15.31,15.31,0,0,1,0,298.12V147a15.32,15.32,0,0,1,15.3-15.3H55A15.32,15.32,0,0,1,70.28,147V298.12A15.31,15.31,0,0,1,55,313.42ZM15.3,140.66A6.31,6.31,0,0,0,9,147V298.12a6.3,6.3,0,0,0,6.3,6.3H55a6.3,6.3,0,0,0,6.29-6.3V147a6.3,6.3,0,0,0-6.29-6.3Z"/><path class="cls-3" d="M145.25,311.53H103.7a15.31,15.31,0,0,1-15.29-15.3V101.88a15.32,15.32,0,0,1,15.29-15.3h41.55a15.32,15.32,0,0,1,15.3,15.3V296.23A15.31,15.31,0,0,1,145.25,311.53ZM103.7,95.58a6.31,6.31,0,0,0-6.3,6.3V296.23a6.31,6.31,0,0,0,6.3,6.3h41.55a6.31,6.31,0,0,0,6.3-6.3V101.88a6.31,6.31,0,0,0-6.3-6.3Z"/><path class="cls-3" d="M233.66,313.06H194a15.32,15.32,0,0,1-15.3-15.29V60.23A15.32,15.32,0,0,1,194,44.93h39.69A15.31,15.31,0,0,1,249,60.23V297.77A15.31,15.31,0,0,1,233.66,313.06ZM194,53.93a6.3,6.3,0,0,0-6.3,6.3V297.77a6.3,6.3,0,0,0,6.3,6.29h39.69a6.3,6.3,0,0,0,6.3-6.29V60.23a6.31,6.31,0,0,0-6.3-6.3Z"/><path class="cls-3" d="M322,311.32H282.37A15.31,15.31,0,0,1,267.08,296V15.3A15.31,15.31,0,0,1,282.37,0H322a15.31,15.31,0,0,1,15.29,15.3V296A15.31,15.31,0,0,1,322,311.32ZM282.37,9a6.3,6.3,0,0,0-6.29,6.3V296a6.3,6.3,0,0,0,6.29,6.3H322a6.3,6.3,0,0,0,6.29-6.3V15.3A6.3,6.3,0,0,0,322,9Z"/></svg>