<svg id="Layer_1" data-name="Layer 1" xmlns="http://www.w3.org/2000/svg" viewBox="0 0 345.7 379.23"><defs><style>.cls-1{opacity:0.15;}.cls-2{fill:#2698b5;}.cls-3{fill:#0c3a78;}</style></defs><g class="cls-1"><circle class="cls-2" cx="205.72" cy="181.47" r="139.99"/></g><path class="cls-3" d="M155.47,310.93C69.74,310.93,0,241.19,0,155.47S69.74,0,155.47,0,310.93,69.74,310.93,155.47,241.19,310.93,155.47,310.93Zm0-303.14C74,7.79,7.79,74,7.79,155.47S74,303.14,155.47,303.14s147.67-66.25,147.67-147.67S236.89,7.79,155.47,7.79Z"/><path class="cls-3" d="M209.32,215.73c-20.55,0-37.86-8.42-38.94-8.95l-1.25-.62-.57-1.26c-.75-1.67-18.22-41,2.31-71.27,16.1-23.7,50.61-34.47,102.57-31.95l3.66.18,0,3.66c.71,52-11.23,86.14-35.47,101.41C231.2,213.52,219.84,215.73,209.32,215.73Zm-34.21-15.35c6.69,2.92,38.14,15.26,62.45-.07,21.22-13.39,31.92-44,31.83-91-47-1.7-78,7.93-92.07,28.7C161.15,161.82,172.41,193.6,175.11,200.38Z"/><path class="cls-3" d="M87.52,222.34a39.86,39.86,0,0,1-19.2-4.66c-17.08-9.27-26.64-31.61-28.43-66.43l-.19-3.66,3.64-.41C78,143.24,101.6,149,113.53,164.34c15.28,19.64,5.21,47,4.77,48.16l-.49,1.3-1.2.7C115.85,214.94,102.84,222.34,87.52,222.34Zm-39.63-67.8C50,184.33,58.07,203.25,72,210.82c15.62,8.48,34.45.11,39.42-2.4,1.65-5.32,6.81-25.35-4.1-39.32C97.59,156.59,77.59,151.69,47.89,154.54Z"/><path class="cls-3" d="M131,140.71c-7.71,0-20.74-1.66-29.21-11.68-9.65-11.4-10.31-29.94-2-55.12L101,70.43l3.54.94c25.64,6.78,40.8,17.47,45.07,31.79,5.49,18.4-9.36,35.19-10,35.9l-.93,1-1.37.21A43.19,43.19,0,0,1,131,140.71ZM106.11,79.89c-6.27,20.56-5.73,35.38,1.6,44.08,8,9.51,22.44,9.15,27,8.78,2.8-3.59,11-15.49,7.41-27.41C138.85,94.44,126.74,85.89,106.11,79.89Z"/><path class="cls-3" d="M151.73,305.84h-7.79c0-76.72,24.26-104.06,25.3-105.19l5.75,5.26C174.76,206.16,151.73,232.6,151.73,305.84Z"/><path class="cls-3" d="M141.86,306.77c-1.61-63-29.71-92.63-30-92.92l5.59-5.44c1.24,1.28,30.52,32.12,32.2,98.16Z"/><path class="cls-3" d="M149.64,306.91l-7.78-.48c8.23-133.1-8.44-167.86-8.61-168.2l6.91-3.58C140.9,136.05,158.07,170.61,149.64,306.91Z"/><path class="cls-3" d="M35.89,362.89h-7.8v-3.64c0-19.22,10.16-29.38,29.38-29.38H120.6a21.6,21.6,0,0,0,21.58-21.58v-3.64H150v3.64a29.4,29.4,0,0,1-29.37,29.38H57.47c-14.73,0-21.58,6.85-21.58,21.58Z"/><path class="cls-3" d="M265.64,362.89h-7.79v-3.64c0-14.73-6.86-21.58-21.58-21.58H173.14a29.41,29.41,0,0,1-29.37-29.38v-3.64h7.79v3.64a21.6,21.6,0,0,0,21.58,21.58h63.13c19.22,0,29.37,10.16,29.37,29.38Z"/><path class="cls-3" d="M69.42,379.23H61.63v-2.58c0-14.14,7.79-21.93,21.93-21.93h44.68a14.15,14.15,0,0,0,14.14-14.13V319.68h7.79v20.91a22,22,0,0,1-21.93,21.93H83.56c-9.91,0-14.14,4.23-14.14,14.13Z"/><path class="cls-3" d="M232.05,379.23h-7.79v-2.58c0-9.9-4.23-14.13-14.14-14.13H165.43a22,22,0,0,1-21.92-21.93V319.68h7.79v20.91a14.15,14.15,0,0,0,14.13,14.13h44.69c14.14,0,21.93,7.79,21.93,21.93Z"/></svg>