<svg id="Layer_1" data-name="Layer 1" xmlns="http://www.w3.org/2000/svg" viewBox="0 0 391.96 277.9"><defs><style>.cls-1{opacity:0.15;}.cls-2{fill:#2698b5;}.cls-3{fill:#0c3a78;}</style></defs><g class="cls-1"><polygon class="cls-2" points="390.92 111.39 301.92 111.39 301.92 90.91 326.63 90.91 210.18 30.8 93.72 90.91 120.38 90.91 120.38 111.39 29.44 111.39 29.44 260.06 115.41 259.79 119.78 259.79 300.03 260.03 301.92 260.06 390.92 260.06 390.92 111.39"/></g><path class="cls-3" d="M208,179.43a58.23,58.23,0,0,1-17.25-2.64l-1.35-.46-.76-1.21c-.57-.93-14-22.85-4.13-42.5,7.68-15.31,27-24.36,57.46-26.91l3.76-.32.54,3.74c4.42,30.23,0,51.11-13.18,62.06C225.31,177.65,216,179.43,208,179.43Zm-13.27-9.83c4.93,1.33,21.85,4.91,33.26-4.61,10.34-8.62,14-25.75,10.85-50.93-25.26,2.66-41.12,10.11-47.16,22.15C185,149.53,192.32,165.11,194.73,169.6Z"/><path class="cls-3" d="M151.37,182.05a23.31,23.31,0,0,1-11.38-2.8c-9.78-5.39-15.18-18-16.06-37.44l-.17-3.77,3.76-.4c19.36-2.07,32.63,1.36,39.43,10.22,8.8,11.46,2.93,27.13,2.67,27.79l-.51,1.34-1.24.7A36.74,36.74,0,0,1,151.37,182.05Zm-19.18-36.77c1.17,14.06,5.17,23.33,11.64,26.92,6.93,3.85,15.5.65,18.74-.83,1-3.41,2.84-12.38-2-18.65C156,146.86,146.25,144.32,132.19,145.28Z"/><path class="cls-3" d="M187.78,230.94h-8c0-49.58,7.64-59.45,10-61.3l5,6.31a1.23,1.23,0,0,0,.28-.25C194.69,176,187.78,184.27,187.78,230.94Z"/><path class="cls-3" d="M188,216.75l-8-.29c1.08-30-15.29-37.92-16-38.25l3.26-7.33C168.12,171.28,189.25,181,188,216.75Z"/><polygon class="cls-3" points="280.31 237.56 91.55 237.56 91.55 62.28 99.57 62.28 99.57 229.54 272.29 229.54 272.29 62.28 280.31 62.28 280.31 237.56"/><path class="cls-3" d="M99.1,238.05H12.76A11.73,11.73,0,0,1,1,226.33V94.46A11.73,11.73,0,0,1,12.76,82.74H99.1ZM12.76,90.77a3.7,3.7,0,0,0-3.7,3.69V226.33a3.7,3.7,0,0,0,3.7,3.69H91.07V90.77Z"/><path class="cls-3" d="M285.73,277.16H86.46a5.09,5.09,0,0,1-5.09-5.1V254.55a5.09,5.09,0,0,1,5.09-5.09H285.73a5.09,5.09,0,0,1,5.09,5.09v17.51A5.09,5.09,0,0,1,285.73,277.16Zm-196.34-8H282.8V257.48H89.39Z"/><path class="cls-3" d="M280.52,257.12H91.44v-27.7H280.52Zm-181-8h173V237.44h-173Z"/><path class="cls-3" d="M41.21,160.85H29.78a4.7,4.7,0,0,1-4.69-4.69V134.62a4.69,4.69,0,0,1,4.69-4.68H41.21a4.69,4.69,0,0,1,4.68,4.68v21.54A4.69,4.69,0,0,1,41.21,160.85Zm-8.1-8h4.76V138H33.11Z"/><path class="cls-3" d="M70.36,160.85H58.93a4.7,4.7,0,0,1-4.69-4.69V134.62a4.69,4.69,0,0,1,4.69-4.68H70.36a4.69,4.69,0,0,1,4.69,4.68v21.54A4.7,4.7,0,0,1,70.36,160.85Zm-8.1-8H67V138H62.26Z"/><path class="cls-3" d="M41.21,201.15H29.78a4.69,4.69,0,0,1-4.69-4.69V174.93a4.69,4.69,0,0,1,4.69-4.69H41.21a4.69,4.69,0,0,1,4.68,4.69v21.53A4.69,4.69,0,0,1,41.21,201.15Zm-8.1-8h4.76V178.26H33.11Z"/><path class="cls-3" d="M70.36,201.15H58.93a4.69,4.69,0,0,1-4.69-4.69V174.93a4.69,4.69,0,0,1,4.69-4.69H70.36a4.7,4.7,0,0,1,4.69,4.69v21.53A4.7,4.7,0,0,1,70.36,201.15Zm-8.1-8H67V178.26H62.26Z"/><path class="cls-3" d="M302.39,68.87H69.48a4,4,0,0,1-1.85-7.58L184.09,1.18a4,4,0,0,1,3.68,0L304.23,61.29a4,4,0,0,1-1.84,7.58ZM86,60.85H285.86L185.93,9.26Z"/><rect class="cls-3" x="104.35" y="63.64" width="8.03" height="166.98"/><rect class="cls-3" x="259.18" y="63.64" width="8.03" height="166.98"/><rect class="cls-3" x="5.36" y="99.57" width="88.91" height="8.03"/><path class="cls-3" d="M358.9,238.05H272.55V82.74H358.9a11.73,11.73,0,0,1,11.71,11.72V226.33A11.73,11.73,0,0,1,358.9,238.05Zm-78.32-8H358.9a3.69,3.69,0,0,0,3.69-3.69V94.46a3.69,3.69,0,0,0-3.69-3.69H280.58Z"/><path class="cls-3" d="M341.87,160.85H330.44a4.69,4.69,0,0,1-4.68-4.69V134.62a4.69,4.69,0,0,1,4.68-4.68h11.43a4.69,4.69,0,0,1,4.69,4.68v21.54A4.7,4.7,0,0,1,341.87,160.85Zm-8.09-8h4.76V138h-4.76Z"/><path class="cls-3" d="M312.72,160.85H301.29a4.7,4.7,0,0,1-4.69-4.69V134.62a4.69,4.69,0,0,1,4.69-4.68h11.43a4.69,4.69,0,0,1,4.69,4.68v21.54A4.7,4.7,0,0,1,312.72,160.85Zm-8.09-8h4.76V138h-4.76Z"/><path class="cls-3" d="M341.87,201.15H330.44a4.69,4.69,0,0,1-4.68-4.69V174.93a4.69,4.69,0,0,1,4.68-4.69h11.43a4.69,4.69,0,0,1,4.69,4.69v21.53A4.69,4.69,0,0,1,341.87,201.15Zm-8.09-8h4.76V178.26h-4.76Z"/><path class="cls-3" d="M312.72,201.15H301.29a4.7,4.7,0,0,1-4.69-4.69V174.93a4.7,4.7,0,0,1,4.69-4.69h11.43a4.69,4.69,0,0,1,4.69,4.69v21.53A4.69,4.69,0,0,1,312.72,201.15Zm-8.09-8h4.76V178.26h-4.76Z"/><rect class="cls-3" x="277.37" y="99.57" width="88.91" height="8.03"/></svg>