<svg id="Layer_1" data-name="Layer 1" xmlns="http://www.w3.org/2000/svg" viewBox="0 0 290.18 392.31"><defs><style>.cls-1{opacity:0.15;}.cls-2{fill:#2698b5;}.cls-3{fill:#0c3a78;}</style></defs><g class="cls-1"><path class="cls-2" d="M284.22,180.8h0a133.27,133.27,0,0,0,5.84-45.21c-2.62-63.07-49.23-113.44-105.59-114.2-59.72-.81-108.36,53.18-108.36,119.9a132.58,132.58,0,0,0,6,39.51h0q1.23,4,2.7,7.79l37.69,108.68a9.55,9.55,0,0,0,8.82,6.76H235a9.55,9.55,0,0,0,8.82-6.76l37.69-108.68q1.47-3.83,2.7-7.79Z"/></g><path class="cls-3" d="M188,354.13H70.8a14.85,14.85,0,1,1,0-29.69H188a14.85,14.85,0,0,1,0,29.69ZM70.8,332.51a6.78,6.78,0,0,0,0,13.55H188a6.78,6.78,0,0,0,0-13.55Z"/><path class="cls-3" d="M188,392.31H70.8a14.85,14.85,0,0,1,0-29.7H188a14.85,14.85,0,0,1,0,29.7ZM70.8,370.69a6.77,6.77,0,1,0,0,13.54H188a6.77,6.77,0,0,0,0-13.54Z"/><path class="cls-3" d="M190.16,303.61H68.66A15,15,0,0,1,54.57,294L10.42,180.33c-1.12-2.58-2.22-5.41-3.22-8.28a129.42,129.42,0,1,1,244.42,0h0c-1,2.87-2.1,5.7-3.27,8.42L204.26,294A15.23,15.23,0,0,1,190.16,303.61ZM129.4,8.08A121.39,121.39,0,0,0,14.83,169.39c.94,2.69,2,5.34,3.06,7.89L62.1,291a7,7,0,0,0,6.56,4.49h121.5a7.07,7.07,0,0,0,6.56-4.49l44.15-113.63c1.16-2.69,2.19-5.34,3.12-8l3.81,1.33L244,169.39A121.37,121.37,0,0,0,130.91,8.09Z"/><path class="cls-3" d="M165.5,194a87.35,87.35,0,0,1-25.81-3.95l-1.36-.47-.76-1.22c-.86-1.38-20.86-34.07-6.26-63.19,11.44-22.8,40.55-36.31,86.51-40.15l3.79-.32.55,3.76c6.67,45.64.11,77.05-19.5,93.36C191.17,191.41,177.3,194,165.5,194Zm-21.8-11.18c6.57,1.87,34.81,8.6,53.83-7.24,16.75-14,22.52-41.6,17.16-82.16-40.73,4-66.33,15.85-76.13,35.33C127.43,150.91,140.39,176.88,143.7,182.86Z"/><path class="cls-3" d="M78.57,198.06A33.82,33.82,0,0,1,62.08,194c-14.32-7.89-22.25-26.64-23.55-55.73l-.18-3.8,3.78-.4C71.1,131,90.82,136,100.78,149c12.8,16.67,4.17,39.65,3.8,40.62l-.52,1.34-1.25.72C102.18,192,91.35,198.06,78.57,198.06ZM46.81,141.75c1.62,23.87,8.06,39.06,19.17,45.18,12.24,6.74,27.09.52,31.52-1.64,1.45-4.7,5.34-20.42-3.16-31.44C86.61,143.81,70.62,139.75,46.81,141.75Z"/><path class="cls-3" d="M132.32,275.23h-8.08c0-77.1,12.09-90.54,14.51-92.45l5,6.35-2.5-3.17,2.69,3C143.84,189.08,132.32,201.56,132.32,275.23Z"/><path class="cls-3" d="M132.62,253.37l-8.07-.29c1.7-47.7-24.68-60.22-25.8-60.73L102,185C103.35,185.55,134.53,199.89,132.62,253.37Z"/></svg>