<svg id="Layer_1" data-name="Layer 1" xmlns="http://www.w3.org/2000/svg" viewBox="0 0 293.8 374.79"><defs><style>.cls-1{opacity:0.15;}.cls-2{fill:#2698b5;}.cls-3{fill:#0c3a78;}</style></defs><g class="cls-1"><path class="cls-2" d="M293.8,164.16c0,112.28-124.3,210.63-124.3,210.63S45.19,273.17,45.19,164.16a124.31,124.31,0,0,1,248.61,0Z"/></g><path class="cls-3" d="M129.43,346.77l-3.23-2.64c-1.28-1.05-31.86-26.21-62.92-65.22C34.41,242.65,0,187.29,0,129.49A129.64,129.64,0,0,1,129.49,0C200.89,0,259,58.09,259,129.49c0,59.51-34.42,114.78-63.29,150.67-31.09,38.63-61.69,63-63,64Zm.06-336.4A119.26,119.26,0,0,0,10.37,129.49c0,95.5,99.78,187,119.17,203.86C149,316.88,248.6,227.82,248.6,129.49A119.25,119.25,0,0,0,129.49,10.37Z"/><path class="cls-3" d="M129.49,212.18a82.7,82.7,0,1,1,82.69-82.69A82.79,82.79,0,0,1,129.49,212.18Zm0-155a72.33,72.33,0,1,0,72.32,72.33A72.42,72.42,0,0,0,129.49,57.16Z"/></svg>