<svg id="Layer_1" data-name="Layer 1" xmlns="http://www.w3.org/2000/svg" viewBox="0 0 349.29 379.23"><defs><style>.cls-1{opacity:0.15;}.cls-2{fill:#2698b5;}.cls-3{fill:#0c3a78;}</style></defs><g class="cls-1"><path class="cls-2" d="M347,166.53V370.42a8,8,0,0,1-8,7.95H42.5a8,8,0,0,1-8-7.95V166.53"/><line class="cls-2" x1="320.72" y1="144.74" x2="348.5" y2="169.48"/><path class="cls-2" d="M90.1,119.05l95.33-84.88a7.94,7.94,0,0,1,10.58,0l95.41,85"/><line class="cls-2" x1="33.19" y1="169.23" x2="60.81" y2="144.64"/><path class="cls-2" d="M348.5,165.78,196.63,301a8,8,0,0,1-10.58,0L34.17,165.78"/><path class="cls-2" d="M59.67,190.07V125.94a8,8,0,0,1,8-8H312a8,8,0,0,1,7.95,8v64.13"/></g><path class="cls-3" d="M309.37,355.18H12.8a12,12,0,0,1-12-12V139.29h8.1V343.17a3.91,3.91,0,0,0,3.91,3.91H309.37a3.91,3.91,0,0,0,3.91-3.91V139.29h8.1V343.17A12,12,0,0,1,309.37,355.18Z"/><rect class="cls-3" x="300.86" y="111.27" width="8.1" height="37.2" transform="matrix(0.66, -0.75, 0.75, 0.66, 5.16, 271.24)"/><path class="cls-3" d="M259,94.91,163.62,10a3.9,3.9,0,0,0-5.19,0L63.09,94.84l-5.38-6L153,3.9a12,12,0,0,1,16,0l95.41,85Z"/><rect class="cls-3" x="-1.18" y="125.65" width="36.98" height="8.1" transform="translate(-81.85 44.33) rotate(-41.67)"/><path class="cls-3" d="M161.64,279.83a12,12,0,0,1-8-3L1.78,141.56l5.39-6.05L159,270.74a3.91,3.91,0,0,0,5.2,0L316.11,135.51l5.38,6.05L169.62,276.79A12,12,0,0,1,161.64,279.83Z"/><path class="cls-3" d="M294.28,162.83h-8.1V98.7a3.91,3.91,0,0,0-3.9-3.9H37.93A3.91,3.91,0,0,0,34,98.7v64.13h-8.1V98.7a12,12,0,0,1,12-12H282.28a12,12,0,0,1,12,12Z"/><rect class="cls-3" x="73.8" y="131.81" width="172.61" height="8.1"/><rect class="cls-3" x="73.8" y="167.12" width="172.61" height="8.1"/></svg>