<svg id="Layer_1" data-name="Layer 1" xmlns="http://www.w3.org/2000/svg" viewBox="0 0 355.02 374.33"><defs><style>.cls-1{opacity:0.15;}.cls-2{fill:#2698b5;}.cls-3{fill:#0c3a78;}</style></defs><g class="cls-1"><rect class="cls-2" x="61.42" y="60.45" width="293.6" height="313.88" rx="4.32"/></g><path class="cls-3" d="M55.89,347.66l-22.36-.72c-5,.24-13.28-2-16.14-3.23C4.2,338.05,2.23,327.8,1.17,322.3c-.1-.5-.19-1-.28-1.41-.7-3.27-.89-13.3-.89-14.53V15.52A15.53,15.53,0,0,1,15.52,0H287.1a15.53,15.53,0,0,1,15.52,15.52h-8A7.53,7.53,0,0,0,287.1,8H15.52A7.54,7.54,0,0,0,8,15.52V306.36a119.44,119.44,0,0,0,.71,12.85c.11.49.21,1,.32,1.58,1,5.16,2.22,11.58,11.51,15.56,2.27,1,9.4,2.79,12.74,2.59h.17l22.7.73Z"/><path class="cls-3" d="M312.61,348H60.76A35.29,35.29,0,0,1,25.5,312.79V41.68A15.54,15.54,0,0,1,41,26.16H312.61a15.53,15.53,0,0,1,15.52,15.52V332.52A15.53,15.53,0,0,1,312.61,348ZM41,34.16a7.53,7.53,0,0,0-7.52,7.52V312.79A27.29,27.29,0,0,0,60.76,340H312.61a7.54,7.54,0,0,0,7.52-7.52V41.68a7.53,7.53,0,0,0-7.52-7.52Z"/><rect class="cls-3" x="294.7" y="15.16" width="8" height="15.35"/><path class="cls-3" d="M287.66,145.55H78a10.14,10.14,0,0,1-10.14-10.13V82.29A10.15,10.15,0,0,1,78,72.16H287.66a10.14,10.14,0,0,1,10.13,10.13v53.13A10.14,10.14,0,0,1,287.66,145.55ZM78,80.16a2.17,2.17,0,0,0-2.14,2.13v53.13A2.16,2.16,0,0,0,78,137.55H287.66a2.15,2.15,0,0,0,2.13-2.13V82.29a2.16,2.16,0,0,0-2.13-2.13Z"/><rect class="cls-3" x="77.63" y="177.52" width="85.73" height="8"/><rect class="cls-3" x="77.63" y="207.48" width="85.73" height="8"/><rect class="cls-3" x="77.63" y="237.43" width="85.73" height="8"/><rect class="cls-3" x="77.63" y="267.38" width="85.73" height="8"/><rect class="cls-3" x="77.63" y="297.33" width="85.73" height="8"/><rect class="cls-3" x="201.14" y="177.52" width="85.73" height="8"/><rect class="cls-3" x="201.14" y="207.48" width="85.73" height="8"/><rect class="cls-3" x="201.14" y="237.43" width="85.73" height="8"/><rect class="cls-3" x="201.14" y="267.38" width="85.73" height="8"/><rect class="cls-3" x="201.14" y="297.33" width="85.73" height="8"/></svg>