<svg id="Layer_1" data-name="Layer 1" xmlns="http://www.w3.org/2000/svg" viewBox="0 0 329.46 379.23"><defs><style>.cls-1{opacity:0.15;}.cls-2{fill:#2698b5;}.cls-3{fill:#0c3a78;}</style></defs><g class="cls-1"><path class="cls-2" d="M318.93,109.19V71.39A10.31,10.31,0,0,0,308.65,61.1H92.12A10.31,10.31,0,0,0,81.84,71.39V369a10.3,10.3,0,0,0,10.28,10.28H308.65A10.3,10.3,0,0,0,318.93,369V109.19Z"/></g><path class="cls-3" d="M29.4,346.87H14.11A14.13,14.13,0,0,1,0,332.76V14.11A14.13,14.13,0,0,1,14.11,0h232.3a14.13,14.13,0,0,1,14.11,14.11v12.5h-7.84V14.11a6.29,6.29,0,0,0-6.27-6.27H14.11a6.29,6.29,0,0,0-6.27,6.27V332.76A6.28,6.28,0,0,0,14.11,339H29.4Z"/><path class="cls-3" d="M271.11,369.8H40.36a14.89,14.89,0,0,1-14.88-14.88V37.81A14.89,14.89,0,0,1,40.36,22.93H271.11A14.9,14.9,0,0,1,286,37.81V78.1h-7.85V37.81a7,7,0,0,0-7-7H40.36a7.05,7.05,0,0,0-7,7V354.92a7.05,7.05,0,0,0,7,7H271.11a7,7,0,0,0,7-7V215.12H286v139.8A14.9,14.9,0,0,1,271.11,369.8Z"/><rect class="cls-3" x="72.61" y="73.27" width="166.25" height="7.84"/><rect class="cls-3" x="72.61" y="110.71" width="166.25" height="7.84"/><rect class="cls-3" x="72.61" y="148.15" width="123.83" height="7.84"/><rect class="cls-3" x="72.61" y="185.59" width="84.77" height="7.84"/><path class="cls-3" d="M290.38,175.79h-.15a9.19,9.19,0,0,1-6.5-2.82L252,140.23a9.26,9.26,0,0,1,.2-13.09l.25-.24a9.17,9.17,0,0,1,6.43-2.6H259a9.22,9.22,0,0,1,6.5,2.81l31.73,32.74a9.27,9.27,0,0,1-.2,13.1l-.24.23A9.22,9.22,0,0,1,290.38,175.79Zm-31.49-43.65a1.42,1.42,0,0,0-1,.4l-.24.23a1.41,1.41,0,0,0,0,2l31.73,32.74a1.4,1.4,0,0,0,1,.43,1.57,1.57,0,0,0,1-.4l.24-.23a1.42,1.42,0,0,0,0-2L259.9,132.57a1.42,1.42,0,0,0-1-.43Z"/><path class="cls-3" d="M306.52,159.44h-.18a11,11,0,0,1-7.78-3.37l-29.2-30.13a11.08,11.08,0,0,1,.24-15.66l11.88-11.51a11.08,11.08,0,0,1,15.66.25l29.2,30.13a11.07,11.07,0,0,1-.25,15.66l-11.87,11.51A11,11,0,0,1,306.52,159.44Zm-17.34-55.95a3.22,3.22,0,0,0-2.24.91l-11.88,11.51a3.2,3.2,0,0,0-1,2.27,3.23,3.23,0,0,0,.91,2.3l29.2,30.13a3.24,3.24,0,0,0,4.57.07l11.87-11.5a3.22,3.22,0,0,0,.08-4.57L291.5,104.48A3.19,3.19,0,0,0,289.18,103.49Z"/><path class="cls-3" d="M101.06,318.73l14.71-59.38L236.23,142.62a9.79,9.79,0,0,1,6.71-2.66,9.35,9.35,0,0,1,6.61,2.87l31.51,32.5a9.45,9.45,0,0,1-.21,13.33L160.41,305.37Zm21.79-55.31-11.13,44.87,44.81-10.09L275.39,183a1.58,1.58,0,0,0,0-2.23l-31.5-32.5a1.53,1.53,0,0,0-1.13-.48,1.57,1.57,0,0,0-1.1.44Z"/><polygon class="cls-3" points="104.94 314.93 127.62 309.24 111.35 292.45 104.94 314.93"/><rect class="cls-3" x="135.28" y="253.15" width="7.84" height="56.26" transform="translate(-158.12 180.82) rotate(-45)"/></svg>