<svg id="Layer_1" data-name="Layer 1" xmlns="http://www.w3.org/2000/svg" viewBox="0 0 385.9 239.05"><defs><style>.cls-1{opacity:0.15;}.cls-2{fill:#2698b5;}.cls-3{fill:#0c3a78;}</style></defs><g class="cls-1"><path class="cls-2" d="M281.84,176.79h99.73a4.33,4.33,0,0,0,4.33-4.53c-.53-10.83-5.62-38.45-26.56-51.93,0,0-12.46,17.45-35.78,16.62a42.74,42.74,0,0,1-34.63-16s-10.16,6.24-18.08,19.86"/></g><g class="cls-1"><circle class="cls-2" cx="324.35" cy="87.01" r="35.43"/></g><path class="cls-3" d="M312.34,114.9a39.19,39.19,0,1,1,39.18-39.19A39.23,39.23,0,0,1,312.34,114.9Zm0-70a30.77,30.77,0,1,0,30.77,30.77A30.8,30.8,0,0,0,312.34,44.94Z"/><path class="cls-3" d="M369.35,167.62H281.58v-8.41h87.77c-.5-11.72-5.68-33.72-21.24-45.86-5.09,5.38-17.31,15.62-35.94,15A46.37,46.37,0,0,1,277.28,114a59.19,59.19,0,0,0-13.19,15.36L256.87,125c8.19-13.67,18.4-20,18.84-20.3l3.15-1.94,2.32,2.89a37.67,37.67,0,0,0,30.56,14.23l.24,0h.26A38.63,38.63,0,0,0,344,105.24l2.34-3.23,3.35,2.14c25.57,16.46,28,50.74,28.15,54.59a8.48,8.48,0,0,1-8.48,8.88Z"/><g class="cls-1"><path class="cls-2" d="M114.68,122.79c-3-3.47,1.89.17-2.18-2.46,0,0-12.46,17.45-35.79,16.62a42.73,42.73,0,0,1-34.62-16s-25.42,15.55-27.2,51.32a4.32,4.32,0,0,0,4.33,4.51H89.45"/></g><g class="cls-1"><circle class="cls-2" cx="80.31" cy="87.01" r="35.43"/></g><path class="cls-3" d="M65.5,114.9a39.19,39.19,0,1,1,39.18-39.19A39.23,39.23,0,0,1,65.5,114.9Zm0-70A30.77,30.77,0,1,0,96.26,75.71,30.8,30.8,0,0,0,65.5,44.94Z"/><path class="cls-3" d="M88.94,167.62H8.49A8.48,8.48,0,0,1,0,158.76c1.85-37.1,27.75-53.37,28.85-54L32,102.79l2.32,2.88A37.65,37.65,0,0,0,64.89,119.9l.24,0h.26a38.84,38.84,0,0,0,31.76-14.65L99.48,102l3.36,2.14c8.38,5.4,11.34,9.77,15.67,17.79l-7.41,4c-3.24-6-5.24-9.17-9.8-12.62a47.59,47.59,0,0,1-36,15A46.28,46.28,0,0,1,30.42,114c-6.27,5-20.71,19.28-22,45.22l80.52,0Z"/><g class="cls-1"><path class="cls-2" d="M205.37,157.72s-33.41,2.91-56.91-26.28c0,0-41.76,25.55-44.7,84.33a7.11,7.11,0,0,0,7.13,7.42H300.7a7.12,7.12,0,0,0,7.12-7.44c-.87-17.79-9.24-63.18-43.65-85.34C264.17,130.41,243.69,159.08,205.37,157.72Z"/></g><g class="cls-1"><circle class="cls-2" cx="206.67" cy="80.26" r="58.23"/></g><path class="cls-3" d="M186.93,123.37a61.69,61.69,0,1,1,61.69-61.68A61.76,61.76,0,0,1,186.93,123.37Zm0-114.95A53.27,53.27,0,1,0,240.2,61.69,53.33,53.33,0,0,0,186.93,8.42Z"/><path class="cls-3" d="M280.62,205.42H93.26a11.36,11.36,0,0,1-8.18-3.5A11,11,0,0,1,82,193.69c3-59.56,44.37-85.55,46.13-86.63l3.16-1.93,2.32,2.88a64.65,64.65,0,0,0,52.53,24.39l.25,0h.26c35.12,1.3,54.28-24.93,54.47-25.2l2.34-3.24,3.36,2.16c40.88,26.32,44.71,81.37,45,87.56a11.12,11.12,0,0,1-3.08,8.27A11.32,11.32,0,0,1,280.62,205.42Zm-151-89.11c-9.17,7-36.91,31.75-39.2,77.8a2.71,2.71,0,0,0,.75,2,2.83,2.83,0,0,0,2.08.9H280.62a2.81,2.81,0,0,0,2.05-.89,2.69,2.69,0,0,0,.77-2c-1-20.14-10.15-58.57-38.05-78.78-6.8,7.74-26.6,26.5-58.79,25.5C183.15,141,152.81,142.32,129.63,116.31Z"/><path class="cls-3" d="M283.42,239.05H93.72a12,12,0,1,1,0-24h189.7a12,12,0,0,1,0,24ZM93.72,223.47a3.58,3.58,0,0,0,0,7.16h189.7a3.58,3.58,0,1,0,0-7.16Z"/><path class="cls-3" d="M85.88,184.08H5.1a4.21,4.21,0,0,1,0-8.42H85.88a4.21,4.21,0,0,1,0,8.42Z"/><path class="cls-3" d="M372.36,184.08H287.7a4.21,4.21,0,1,1,0-8.42h84.66a4.21,4.21,0,0,1,0,8.42Z"/></svg>