<svg id="Layer_1" data-name="Layer 1" xmlns="http://www.w3.org/2000/svg" viewBox="0 0 392.81 363.81"><defs><style>.cls-1{opacity:0.15;}.cls-2{fill:#2698b5;}.cls-3{fill:#0c3a78;}</style></defs><g class="cls-1"><path class="cls-2" d="M293.88,171.07l28.75,58.23a3.63,3.63,0,0,0,2.76,2l64.27,9.34a3.68,3.68,0,0,1,2,6.27l-46.5,45.33a3.67,3.67,0,0,0-1.06,3.25l11,64a3.68,3.68,0,0,1-5.33,3.88L292.3,333.16a3.63,3.63,0,0,0-3.42,0L231.4,363.38a3.68,3.68,0,0,1-5.33-3.88l11-64a3.67,3.67,0,0,0-1.06-3.25l-46.5-45.33a3.68,3.68,0,0,1,2-6.27l64.26-9.34a3.66,3.66,0,0,0,2.77-2l28.74-58.23A3.67,3.67,0,0,1,293.88,171.07Z"/></g><path class="cls-3" d="M151.45,175.65a87.83,87.83,0,1,1,87.82-87.82A87.93,87.93,0,0,1,151.45,175.65Zm0-167.22a79.4,79.4,0,1,0,79.4,79.4A79.49,79.49,0,0,0,151.45,8.43Z"/><path class="cls-3" d="M212.59,295H15.18a14.53,14.53,0,0,1-10.5-4.51A14.15,14.15,0,0,1,.74,279.94C5,194.3,64.41,157,66.93,155.45l3.17-1.93,2.32,2.88c32,39.71,77.61,36.21,78.05,36.18l.26,0H151c51.91,1.87,80.58-37.06,80.86-37.45l2.34-3.25,3.37,2.16c9,5.82,14.1,10.67,20.81,18.13l-6.27,5.63c-5.48-6.09-9.57-10.12-15.93-14.55-8.41,10-37.23,39.4-85.24,37.76-4.35.31-49,2.56-82.57-36.3-11.92,8.71-55.7,45.36-59.2,115.66a5.78,5.78,0,0,0,1.62,4.32,6,6,0,0,0,4.4,1.89H212.59Z"/><path class="cls-3" d="M203.28,337.58H14.72a14.73,14.73,0,0,1,0-29.45h194.1v8.43H14.72a6.3,6.3,0,0,0,0,12.59H203.28Z"/><path class="cls-3" d="M208.8,349.12a7.76,7.76,0,0,1-7.63-9.06l10.49-61.12-44.41-43.29a7.74,7.74,0,0,1,4.29-13.2l61.37-8.92,27.44-55.61a7.75,7.75,0,0,1,13.89,0h0l27.44,55.61,61.37,8.92a7.74,7.74,0,0,1,4.29,13.2l-44.41,43.29,10.49,61.12a7.75,7.75,0,0,1-11.24,8.16l-54.89-28.86-54.88,28.86A7.78,7.78,0,0,1,208.8,349.12Zm58.5-38.28a7.79,7.79,0,0,1,3.6.89l54,28.38L314.57,280a7.73,7.73,0,0,1,2.22-6.85l43.67-42.57-60.35-8.77a7.76,7.76,0,0,1-5.83-4.23l-27-54.69-27,54.69a7.76,7.76,0,0,1-5.83,4.23l-60.35,8.77,43.67,42.56A7.75,7.75,0,0,1,220,280l-10.3,60.11,54-28.38A7.8,7.8,0,0,1,267.3,310.84Zm-.62-149.18Z"/></svg>