<svg id="Layer_1" data-name="Layer 1" xmlns="http://www.w3.org/2000/svg" viewBox="0 0 333.86 344.17"><defs><style>.cls-1{opacity:0.15;}.cls-2{fill:#2698b5;}.cls-3{fill:#0c3a78;}</style></defs><g class="cls-1"><path class="cls-2" d="M181.75,232s-49.58,4.32-84.47-39c0,0-62,37.94-66.36,125.2a10.56,10.56,0,0,0,10.58,11H323.28a10.57,10.57,0,0,0,10.57-11c-1.29-26.42-13.71-93.8-64.8-126.69C269.05,191.48,238.65,234.05,181.75,232Z"/></g><g class="cls-1"><circle class="cls-2" cx="183.69" cy="117.04" r="86.45"/></g><path class="cls-3" d="M154.39,178.92a89.46,89.46,0,1,1,89.46-89.46A89.56,89.56,0,0,1,154.39,178.92Zm0-170.66a81.2,81.2,0,1,0,81.2,81.2A81.3,81.3,0,0,0,154.39,8.26Z"/><path class="cls-3" d="M293.46,300.72H15.32a14.71,14.71,0,0,1-10.6-4.55,14.3,14.3,0,0,1-4-10.65c4.36-87.3,64.89-125.32,67.47-126.9l3.1-1.89,2.27,2.82c32.57,40.46,79.35,37,79.82,37l.24,0h.26c1.23,0,2.46.07,3.67.07,50.84,0,78.71-38,79-38.35l2.29-3.19,3.3,2.12c48.58,31.27,64.25,95.37,65.85,128.32a14.32,14.32,0,0,1-4,10.7A14.65,14.65,0,0,1,293.46,300.72Zm-223.84-133c-12,8.75-57,46.2-60.61,118.25a6.1,6.1,0,0,0,1.7,4.55,6.32,6.32,0,0,0,4.61,2H293.46a6.28,6.28,0,0,0,4.59-2,6.19,6.19,0,0,0,1.72-4.6c-1.49-30.65-15.64-89.53-58.95-119.69-8.44,10.07-37.85,40.17-87,38.59C149.51,205.11,103.85,207.44,69.62,167.68Z"/><path class="cls-3" d="M293.92,344.17H14.86a14.86,14.86,0,1,1,0-29.71H293.92a14.86,14.86,0,1,1,0,29.71ZM14.86,322.72a6.6,6.6,0,1,0,0,13.19H293.92a6.6,6.6,0,1,0,0-13.19Z"/></svg>