<svg id="Layer_1" data-name="Layer 1" xmlns="http://www.w3.org/2000/svg" viewBox="0 0 220.7 377.17"><defs><style>.cls-1{opacity:0.15;}.cls-2{fill:#2698b5;}.cls-3{fill:#0c3a78;}</style></defs><g class="cls-1"><rect class="cls-2" x="50.07" y="33.63" width="170.63" height="343.54" rx="4.32"/></g><path class="cls-3" d="M177.67,352.84H18.05a18.07,18.07,0,0,1-18-18V18.05A18.07,18.07,0,0,1,18.05,0H177.67a18.07,18.07,0,0,1,18.05,18.05V334.8A18.07,18.07,0,0,1,177.67,352.84ZM18.05,9.3A8.77,8.77,0,0,0,9.3,18.05V334.8a8.76,8.76,0,0,0,8.75,8.74H177.67a8.76,8.76,0,0,0,8.75-8.74V18.05a8.77,8.77,0,0,0-8.75-8.75Z"/><path class="cls-3" d="M108.49,323.93l.11-4.77a11.56,11.56,0,0,0-3.15-8.2,10.63,10.63,0,0,0-7.83-3.08,10.18,10.18,0,0,0-7.6,3,11.67,11.67,0,0,0-3.13,8.31l.1,4.76H34.64a18.07,18.07,0,0,1-18-18.05V47a18.07,18.07,0,0,1,18.05-18H161.08a18.06,18.06,0,0,1,18,18v258.9a18.07,18.07,0,0,1-18,18.05ZM97.62,298.57a19.76,19.76,0,0,1,14.49,5.89,20.59,20.59,0,0,1,5.36,10.16h43.61a8.76,8.76,0,0,0,8.75-8.75V47a8.75,8.75,0,0,0-8.75-8.74H34.64A8.76,8.76,0,0,0,25.89,47v258.9a8.77,8.77,0,0,0,8.75,8.75H78a20.44,20.44,0,0,1,5.36-10.28A19.43,19.43,0,0,1,97.62,298.57Z"/><path class="cls-3" d="M97.86,337.86A19.86,19.86,0,1,1,117.72,318,19.88,19.88,0,0,1,97.86,337.86Zm0-30.41A10.56,10.56,0,1,0,108.42,318,10.57,10.57,0,0,0,97.86,307.45Z"/></svg>