<svg id="Layer_1" data-name="Layer 1" xmlns="http://www.w3.org/2000/svg" viewBox="0 0 389.45 114.96"><defs><style>.cls-1{opacity:0.15;}.cls-2{fill:#2698b5;}.cls-3{fill:#0c3a78;}</style></defs><g class="cls-1"><rect class="cls-2" x="34.52" y="33.78" width="354.93" height="81.18" rx="4.32"/></g><path class="cls-3" d="M350.07,95.3H14.43A14.44,14.44,0,0,1,0,80.87V14.43A14.44,14.44,0,0,1,14.43,0H350.07A14.44,14.44,0,0,1,364.5,14.43V80.87A14.44,14.44,0,0,1,350.07,95.3ZM14.43,7.44a7,7,0,0,0-7,7V80.87a7,7,0,0,0,7,7H350.07a7,7,0,0,0,7-7V14.43a7,7,0,0,0-7-7Z"/><rect class="cls-3" x="178.72" y="37.5" width="7.44" height="54.04"/><rect class="cls-3" x="44.59" y="37.5" width="7.44" height="54.04"/><rect class="cls-3" x="78.13" y="57.51" width="7.44" height="34.03"/><rect class="cls-3" x="111.66" y="57.51" width="7.44" height="34.03"/><rect class="cls-3" x="145.19" y="57.51" width="7.44" height="34.03"/><rect class="cls-3" x="312.47" y="37.5" width="7.44" height="54.04"/><rect class="cls-3" x="211.88" y="57.51" width="7.44" height="34.03"/><rect class="cls-3" x="245.41" y="57.51" width="7.44" height="34.03"/><rect class="cls-3" x="278.94" y="57.51" width="7.44" height="34.03"/></svg>