<svg id="Layer_1" data-name="Layer 1" xmlns="http://www.w3.org/2000/svg" viewBox="0 0 310.46 228.21"><defs><style>.cls-1{fill:#d5724a;}</style></defs><path class="cls-1" d="M188.43,64.34c-26.18-50.45-25.64-48.77-33.33-64V0L155,.19a1.14,1.14,0,0,1-.1-.19V.38c-7.73,15.17-7.19,13.49-33.53,63.86-27.68,53-9.2,69,17.27,113.37,7.08,11.86,14.75,23.93,15.95,26.76v.46l.09-.23c0,.08.08.18.1.23v-.46c1.21-2.82,8.07-14.3,15.52-26.29C197.62,134.21,216,117.38,188.43,64.34Z"/><path class="cls-1" d="M291.84,164.06c14.58-46,13.89-44.67,18.39-58.41l.23-.23-.17.06.06-.17-.23.23c-13.75,4.46-12.42,3.77-58.47,18.2-48.41,15.18-46.94,35.89-57.69,78.43-2.88,11.38-5.52,23.23-6.5,25.65l-.28.27.2-.08-.08.2.28-.28c2.42-1,13.43-3.74,25.1-6.46C255.42,211.52,276.52,212.43,291.84,164.06Z"/><path class="cls-1" d="M58.57,122.32C12.71,107.79,14,108.48.34,104l-.22-.23.05.17L0,103.87l.23.23C4.68,117.81,4,116.48,18.38,162.39c15.13,48.27,35.78,46.79,78.19,57.51,11.33,2.87,23.15,5.51,25.56,6.48l.27.28s-.05-.13-.07-.2l.19.08-.27-.27c-1-2.42-3.74-13.39-6.45-25C105.89,158.64,106.79,137.59,58.57,122.32Z"/></svg>