<svg id="Layer_1" data-name="Layer 1" xmlns="http://www.w3.org/2000/svg" viewBox="0 0 319.45 237.2"><defs><style>.cls-1{fill:#d5724a;}</style></defs><path class="cls-1" d="M160.53,19.45c5.52,10.42,14.62,27.81,26.55,51.45,8.9,17.61,13,31.89,12.69,43.66-.33,10.53-4.17,18.38-8.43,26.15-6.73,12.29-22.44,38.5-30.83,52.42-5.55-8.13-15.16-22.81-29.63-46.86-20.43-33.94-6.63-58.75,1.62-73.57,1.26-2.25,2.34-4.2,3.24-6,5.45-11.19,17.43-33.57,24.79-47.21m0-14.77s-22.82,41.9-31.11,58.91c-6.69,13.71-30.2,43.7-4.57,86.29s36.09,56,36.09,56,27-44.38,36.51-61.81,16.59-35.26-4.15-76.33S160.56,4.68,160.56,4.68Z"/><path class="cls-1" d="M305.12,116.21c-3.12,10.13-8.19,26.28-15.21,47.62-5.44,16.54-11.74,28-19.27,35.1-6.7,6.3-14,8.78-21.42,11-11.61,3.39-36.85,9.73-51.12,13.27,1.68-8.78,4.85-23.72,10.6-46.85,3.69-14.87,10.55-25.8,21-33.39,8.83-6.45,18.61-9.23,25.75-11.27,2.13-.6,4.14-1.18,5.88-1.77,10.09-3.48,30.56-9.69,43.83-13.67m10.47-10.42s-40.68,12-56.58,17.47c-12.82,4.41-46.45,8.49-57.11,51.37s-12.51,57.88-12.51,57.88,44.85-10.95,61.79-15.9,32.6-11.74,45.38-50.59,19-60.23,19-60.23Z"/><path class="cls-1" d="M14.28,114.72c10.13,3.12,26.27,8.19,47.63,15.22,16.54,5.43,28,11.74,35.09,19.26,6.3,6.7,8.78,14,11,21.42,3.4,11.61,9.73,36.85,13.27,51.12-8.77-1.68-23.72-4.85-46.84-10.59-14.88-3.7-25.8-10.56-33.4-21-6.44-8.83-9.23-18.61-11.26-25.75-.61-2.13-1.18-4.14-1.78-5.88-3.47-10.09-9.69-30.55-13.67-43.83M3.86,104.25s12,40.68,17.47,56.58c4.42,12.82,8.49,46.45,51.37,57.11s57.89,12.52,57.89,12.52-11-44.85-15.91-61.8S103,136.06,64.1,123.29s-60.24-19-60.24-19Z"/></svg>