<svg id="Layer_1" data-name="Layer 1" xmlns="http://www.w3.org/2000/svg" viewBox="0 0 193.24 548.54"><defs><style>.cls-1{fill:#d5724a;}</style></defs><path class="cls-1" d="M102.05,188.12,23.57,136.19C1.34,121.48-6.56,94.25,5.92,75.38l1.43-2.16,75.94,50.25c23.64,15.64,32,44.58,18.76,64.65Z"/><path class="cls-1" d="M103.31,161.94H64.79v386.6h43.56V167A5,5,0,0,0,103.31,161.94Z"/><path class="cls-1" d="M178.26,45.93C190,10,189.43,11,193.06.27l.18-.18-.14,0,.05-.13L193,.18c-10.81,3.4-9.76,2.88-45.95,13.89-38,11.57-37,27.82-45.73,61.09C99,84.05,96.82,93.32,96,95.21l-.21.21.15-.06c0,.06,0,.12-.06.16l.21-.22c1.91-.74,10.55-2.84,19.72-4.9C149.4,82.88,165.94,83.74,178.26,45.93Z"/></svg>