<svg id="Layer_1" data-name="Layer 1" xmlns="http://www.w3.org/2000/svg" xmlns:xlink="http://www.w3.org/1999/xlink" viewBox="0 0 310.46 228.21"><defs><style>.cls-1{fill:url(#linear-gradient);}</style><linearGradient id="linear-gradient" x1="155.23" y1="228.21" x2="155.23" gradientUnits="userSpaceOnUse"><stop offset="0" stop-color="#d5724a"/><stop offset="0.41" stop-color="#e8815c"/><stop offset="1" stop-color="#ff9473"/></linearGradient></defs><path class="cls-1" d="M170.31,178.08c-7.45,12-14.31,23.47-15.52,26.29v.46c0-.05-.07-.15-.1-.23l-.09.23v-.46c-1.2-2.83-8.87-14.9-15.95-26.76C112.18,133.22,93.7,117.2,121.38,64.24c26.34-50.37,25.8-48.69,33.53-63.86V0a1.14,1.14,0,0,0,.1.19L155.1,0V.38c7.69,15.19,7.15,13.51,33.33,64C216,117.38,197.62,134.21,170.31,178.08Zm121.53-14c14.58-46,13.89-44.67,18.39-58.41l.23-.23-.17.06.06-.17-.23.23c-13.75,4.46-12.42,3.77-58.47,18.2-48.41,15.18-46.94,35.89-57.69,78.43-2.88,11.38-5.52,23.23-6.5,25.65l-.28.27.2-.08-.08.2.28-.28c2.42-1,13.43-3.74,25.1-6.46C255.42,211.52,276.52,212.43,291.84,164.06ZM58.57,122.32C12.71,107.79,14,108.48.34,104l-.22-.23.05.17L0,103.87l.23.23C4.68,117.81,4,116.48,18.38,162.39c15.13,48.27,35.78,46.79,78.19,57.51,11.33,2.87,23.15,5.51,25.56,6.48l.27.28s-.05-.13-.07-.2l.19.08-.27-.27c-1-2.42-3.74-13.39-6.45-25C105.89,158.64,106.79,137.59,58.57,122.32Z"/></svg>