<svg id="Layer_1" data-name="Layer 1" xmlns="http://www.w3.org/2000/svg" viewBox="0 0 104.05 223.65"><defs><style>.cls-1{fill:#d5724a;}</style></defs><path class="cls-1" d="M52.63,14.75C58.69,26.17,69.06,46,82.84,73.25,92.79,93,97.43,109,97,122.16c-.36,11.88-4.68,20.7-9.46,29.42-7.66,14-25.76,44.16-34.92,59.34-6.06-8.83-16.93-25.37-33.64-53.13-22.94-38.12-7.46-65.94,1.79-82.56,1.39-2.5,2.59-4.66,3.58-6.68,6.24-12.81,20.16-38.78,28.26-53.8M52.66,0S27.3,46.57,18.07,65.48C10.64,80.72-15.49,114.06,13,161.4c28.59,47.5,40.12,62.25,40.12,62.25s30-49.34,40.58-68.71,18.45-39.19-4.61-84.85S52.66,0,52.66,0Z"/></svg>