<svg id="Layer_1" data-name="Layer 1" xmlns="http://www.w3.org/2000/svg" viewBox="0 0 407.57 247.25"><defs><style>.cls-1{fill:#0c3a78;}</style></defs><path class="cls-1" d="M204.11,11.46c26.13,25.64,44.51,50,54.66,72.5,8.83,19.55,11.5,37.87,7.93,54.44-4.12,19.18-16.37,36.13-36.39,50.39A140.21,140.21,0,0,1,202.79,204a140.6,140.6,0,0,1-27.3-15.56c-19.83-14.53-31.84-31.65-35.71-50.89-3.33-16.61-.41-34.89,8.68-54.33,10.46-22.35,29.16-46.46,55.65-71.74m.06-9.67c-162.81,151-1.43,209.71-1.43,209.71S364.91,155,204.17,1.79Z"/><path class="cls-1" d="M13.13,120.93c29.53,0,53.76,3.79,72,11.28,14.92,6.12,26,14.77,32.87,25.72,17.26,27.4,4.59,63,.74,72.33-5.67,2.26-20.94,7.61-38.07,7.61-18.07,0-32.88-5.86-44-17.43-18-18.74-26.7-52.19-25.76-99.51h2.2m0-7c-2.94,0-5.92,0-9,.11C0,223.27,44.7,244.87,80.7,244.87c23.55,0,43.37-9.25,43.37-9.25S182.82,113.93,13.13,113.93Z"/><path class="cls-1" d="M389.9,122.41c2.22,0,4.5,0,6.8.07.3,47.07-8.71,80.31-26.82,98.86-11.09,11.36-25.7,17.12-43.41,17.12s-33.33-5.75-39.09-8.14c-3.71-9.36-15.83-44.87,1.49-72,15.23-23.84,49.22-35.92,101-35.92m0-7c-164,0-107.89,120.21-107.89,120.21s20.38,9.84,44.46,9.84c35.78,0,79.73-21.73,77.13-129.78-4.72-.18-9.31-.27-13.7-.27Z"/></svg>