<svg id="Layer_1" data-name="Layer 1" xmlns="http://www.w3.org/2000/svg" viewBox="0 0 154.55 225.39"><defs><style>.cls-1{fill:#0c3a78;}</style></defs><path class="cls-1" d="M78.1,9.67c28.33,27.73,48.24,54.09,59.22,78.43,9.54,21.12,12.42,40.92,8.56,58.84-4.46,20.74-17.7,39.08-39.34,54.48a150.82,150.82,0,0,1-29.86,16.45A151.23,151.23,0,0,1,47.05,201c-21.43-15.7-34.41-34.21-38.59-55C4.85,128,8,108.28,17.82,87.28,29.13,63.1,49.4,37,78.1,9.67M78.17,0c-175,162.26-1.54,225.39-1.54,225.39S250.92,164.64,78.17,0Z"/></svg>