<svg id="Layer_1" data-name="Layer 1" xmlns="http://www.w3.org/2000/svg" viewBox="0 0 348.96 1028.97"><defs><style>.cls-1{fill:#569c62;}.cls-2{fill:#f5d364;}.cls-3{fill:#0c3a78;}.cls-4{fill:#d5724a;}</style></defs><path class="cls-1" d="M222.61,109.58H174a9.32,9.32,0,0,0-9.32,9.32v909.88h57.9Z"/><path class="cls-1" d="M305.33,0,198.81,61.45c-30.18,17.42-42.66,52.3-27.89,77.91l1.69,2.93L275.69,82.83C307.77,64.32,321.05,27.23,305.33,0Z"/><path class="cls-2" d="M342.35,250.72,235.82,312.18c-30.18,17.41-42.66,52.29-27.88,77.91l1.69,2.93L312.7,333.55C344.79,315,358.06,278,342.35,250.72Z"/><path class="cls-2" d="M258.66,357.7H213.18a11.47,11.47,0,0,0-11.46,11.46V1029h56.94Z"/><path class="cls-3" d="M165.75,270.11H115.23v758.67h56.93V276.52A6.41,6.41,0,0,0,165.75,270.11Z"/><path class="cls-3" d="M164,304.4,61.29,236.73C32.2,217.56,21.81,182,38.08,157.31l1.86-2.83L139.3,220c30.93,20.38,42,58.19,24.68,84.44Z"/><path class="cls-4" d="M133.37,558,30.8,490.09c-29-19.22-39.38-54.8-23.06-79.47l1.87-2.82,99.24,65.67c30.89,20.44,41.87,58.26,24.52,84.48Z"/><path class="cls-4" d="M135,523.75H84.67V1029H141.6V530.34A6.59,6.59,0,0,0,135,523.75Z"/></svg>