<svg id="Layer_1" data-name="Layer 1" xmlns="http://www.w3.org/2000/svg" viewBox="0 0 324.86 229.43"><defs><style>.cls-1{fill:#569c62;}</style></defs><path class="cls-1" d="M162.42,15.91c16.54,29.16,27,56.58,31.14,81.65,3.63,22,2.42,42.22-3.61,60.1a94.68,94.68,0,0,1-19.55,33.48,78.05,78.05,0,0,1-8.17,7.78,77.68,77.68,0,0,1-8.16-7.8A94.66,94.66,0,0,1,134.6,157.6c-6-17.89-7.17-38.12-3.49-60.11,4.19-25,14.72-52.46,31.31-81.58m0-13.8c-90.82,149-.22,205.53-.22,205.53s90.72-56.38.22-205.53Z"/><path class="cls-1" d="M12.54,112.8c26.42,7.47,48.37,17.39,65.38,29.55,15.22,10.89,26.5,23.59,33.55,37.74a79.34,79.34,0,0,1,8.3,31.36,68.6,68.6,0,0,1-.14,8.66c-1.45.12-3.2.21-5.21.21-12.46,0-31.35-3.23-50.66-18.65-22.54-18-39.74-47.86-51.22-88.87M2.75,103C29.89,215,89.43,227.32,114.42,227.32a56.08,56.08,0,0,0,11.4-1S146.41,138.14,2.75,103Z"/><path class="cls-1" d="M312.3,112.91c-11.54,40.91-28.77,70.7-51.28,88.66C241.7,217,222.8,220.21,210.34,220.21c-2.07,0-3.87-.09-5.35-.21a65.45,65.45,0,0,1-.13-8.67A79.16,79.16,0,0,1,213.23,180c7.07-14.14,18.39-26.81,33.63-37.67,17-12.13,39-22,65.44-29.41m9.81-9.79C178.38,138,198.77,226.19,198.77,226.19a56.17,56.17,0,0,0,11.57,1c25.09,0,84.45-12.43,111.77-124.09Z"/></svg>