<svg id="Layer_1" data-name="Layer 1" xmlns="http://www.w3.org/2000/svg" viewBox="0 0 186.87 223.44"><defs><style>.cls-1{fill:#f5d364;}</style></defs><path class="cls-1" d="M93.15,15.28c5.8,10,21.58,34.15,60.42,79.77,21.44,25.17,29.84,46.5,25,63.39-2.34,8.12-7.87,15.41-16.42,21.66-7.26,5.31-16.85,9.93-27.75,13.35-19.54,6.13-33.2,12.64-40.81,19.41-7.63-6.74-21.31-13.19-40.88-19.25-10.91-3.38-20.52-8-27.8-13.23-8.58-6.23-14.14-13.49-16.51-21.6-4.93-16.87,3.38-38.23,24.71-63.49,39.21-46.41,54.6-70.39,60.07-80M93,0s-3.61,7.38-3.61,7.38-9,21.08-61.67,83.4c-57.15,67.65-14.09,98.07,22.86,109.51,34,10.53,41.12,19.71,42.61,23.15H94c1.48-3.45,8.56-12.66,42.51-23.32,36.91-11.58,79.85-42.18,22.43-109.61C106,28.41,96.56,6.84,96.56,6.84S93,0,93,0Z"/></svg>