<svg id="Layer_1" data-name="Layer 1" xmlns="http://www.w3.org/2000/svg" xmlns:xlink="http://www.w3.org/1999/xlink" viewBox="0 0 434.72 250.62"><defs><style>.cls-1{fill:url(#linear-gradient);}</style><linearGradient id="linear-gradient" x1="217.36" y1="250.62" x2="217.36" gradientUnits="userSpaceOnUse"><stop offset="0" stop-color="#f5d364"/><stop offset="0.45" stop-color="#f8d97a"/><stop offset="1" stop-color="#fce29a"/></linearGradient></defs><path class="cls-1" d="M256.32,182.53c-36.55,11.34-39,21-39.2,22.3h0c-.16-1.34-2.61-11-39.13-22.41-33.67-10.55-72.86-38.43-20.52-100C205.68,25.77,217.38.05,217.38.05s0-.06,0,0h0l0,.05s11.63,25.75,59.68,82.57C329.29,144.31,290,172.08,256.32,182.53Zm166.5,19.09c4.55-54.45,11.89-73.86,11.89-73.86s0,0,0,0h0s0,0,0,0S415.24,135,360.78,139.4C301.64,144.18,307.51,179,319.52,202c13,24.91,9.3,31.17,8.68,32h0c.79-.61,7.06-4.32,31.93,8.77C383.06,254.78,417.87,260.74,422.82,201.62Zm-349-62.14C19.43,134.93.05,127.6.05,127.6H0v0S7.28,147,11.67,201.45c4.77,59.07,39.56,53.21,62.5,41.21,24.88-13,31.14-9.28,31.92-8.67h0c-.61-.78-4.31-7.05,8.77-31.9C126.92,179.19,132.88,144.42,73.82,139.48Z"/></svg>