<svg id="Layer_1" data-name="Layer 1" xmlns="http://www.w3.org/2000/svg" viewBox="0 0 437.99 254.97"><defs><style>.cls-1{fill:#f5d364;}</style></defs><path class="cls-1" d="M218.89,17.43c5.72,9.64,20.23,31.43,54.12,71.23,19.22,22.57,26.77,41.65,22.43,56.69-2.07,7.19-7,13.66-14.59,19.23-6.5,4.76-15.11,8.89-24.89,12-17.37,5.46-29.65,11.26-36.7,17.32-7.08-6-19.38-11.79-36.77-17.17-9.79-3-18.41-7.13-24.94-11.86-7.63-5.54-12.57-12-14.67-19.18-4.39-15,3.08-34.12,22.21-56.78,34.15-40.43,48.36-62.09,53.8-71.44m-.12-15.15S215.5,9,215.5,9,207.34,28,159.75,84.36c-51.67,61.17-12.74,88.67,20.67,99,30.73,9.51,37.17,17.81,38.52,20.92h.68c1.34-3.12,7.74-11.44,38.44-21.08,33.37-10.48,72.19-38.13,20.28-99.1C230.52,28,222,8.47,222,8.47s-3.19-6.19-3.2-6.19Z"/><path class="cls-1" d="M427.78,138.05c-2.48,10.88-5.81,31.37-8.44,64.17-1.31,16.35-5,28.27-11,35.45-4.51,5.38-10.3,8-17.7,8-9,0-18.33-3.89-24.58-7.15-11.51-6-20.9-9.48-28-10.36-.91-7.12-4.4-16.47-10.45-27.94-4.44-8.43-10.95-24.31-4.57-36,6.67-12.2,25.8-16.25,40.66-17.5,35.81-3,54.81-6.49,64.12-8.71m10.39-10.53-5.29,1.81s-14.49,5.8-69.8,10.45c-60.06,5.06-54,40.42-41.7,63.71,11.29,21.42,10.3,29.26,9.36,31.63l.37.37a9.44,9.44,0,0,1,3.52-.55c4.39,0,12.77,1.76,28.15,9.78,8.38,4.38,18.31,7.95,27.82,7.95,17,0,32.63-11.38,35.72-49.9,4.44-55.33,10.26-70.26,10.26-70.26s1.6-5,1.59-5Z"/><path class="cls-1" d="M10.35,138.23c10.87,2.49,31.37,5.82,64.16,8.45,14.87,1.19,34,5.17,40.74,17.34,6.42,11.62,0,27.53-4.43,36-6,11.49-9.46,20.85-10.34,28-7.1.9-16.48,4.41-28,10.46-6.27,3.31-15.64,7.25-24.67,7.25-7.37,0-13.14-2.61-17.66-8-6-7.15-9.76-19-11.13-35.35-3-35.8-6.49-54.8-8.71-64.12M-.18,127.85h0s1.81,5.28,1.81,5.29,5.79,14.49,10.45,69.8c3.23,38.38,18.85,49.75,35.77,49.75,9.56,0,19.53-3.62,27.94-8.05,15.41-8.13,23.8-9.9,28.17-9.9a9.5,9.5,0,0,1,3.46.53l.37-.36c-1-2.37-2-10.21,9.23-31.67,12.19-23.34,18.13-58.72-41.95-63.54-55.33-4.44-70.26-10.26-70.26-10.26l-5-1.59Z"/></svg>