<svg id="Layer_1" data-name="Layer 1" xmlns="http://www.w3.org/2000/svg" viewBox="0 0 167.22 542.4"><defs><style>.cls-1{fill:#f5d364;}</style></defs><path class="cls-1" d="M162.16,63.12l-81.51,47c-23.1,13.32-32.65,40-21.34,59.61L60.6,172l78.88-45.5C164,112.34,174.18,84,162.16,63.12Z"/><path class="cls-1" d="M98.12,145H63.32a8.77,8.77,0,0,0-8.77,8.77V542.4H98.12Z"/><path class="cls-1" d="M54.26,8.55C14.29,5.34,0,0,0,0H0V0S5.4,14.27,8.76,54.23c3.65,43.38,29.19,39,46,30.11C73,74.73,77.63,77.44,78.2,77.89h0c-.45-.57-3.18-5.17,6.36-23.45C93.36,37.58,97.65,12,54.26,8.55Z"/></svg>