<svg id="Layer_1" data-name="Layer 1" xmlns="http://www.w3.org/2000/svg" viewBox="0 0 434.72 250.62"><defs><style>.cls-1{fill:#f5d364;}</style></defs><path class="cls-1" d="M277.13,82.62C229.08,25.8,217.45.05,217.45.05l0,0h0s0,.05,0,.05-11.7,25.72-59.91,82.4c-52.34,61.54-13.15,89.42,20.52,100,36.52,11.45,39,21.07,39.13,22.41h0c.17-1.34,2.65-11,39.2-22.3C290,172.08,329.29,144.31,277.13,82.62Z"/><path class="cls-1" d="M422.82,201.62c4.55-54.45,11.89-73.86,11.89-73.86s0,0,0,0h0s0,0,0,0S415.24,135,360.78,139.4C301.64,144.18,307.51,179,319.52,202c13,24.91,9.3,31.17,8.68,32h0c.79-.61,7.06-4.32,31.93,8.77C383.06,254.78,417.87,260.74,422.82,201.62Z"/><path class="cls-1" d="M73.82,139.48C19.43,134.93.05,127.6.05,127.6H0v0S7.28,147,11.67,201.45c4.77,59.07,39.56,53.21,62.5,41.21,24.88-13,31.14-9.28,31.92-8.67h0c-.61-.78-4.31-7.05,8.77-31.9C126.92,179.19,132.88,144.42,73.82,139.48Z"/></svg>